<svg width="25" height="20" viewBox="0 0 25 20" fill="none" xmlns="http://www.w3.org/2000/svg">
<path d="M5.49293 3.8985C6.60896 3.8985 7.5136 3.02626 7.5136 1.94892C7.5136 0.872241 6.60896 0 5.49293 0C4.37664 0 3.47217 0.872241 3.47217 1.94892C3.47217 3.02626 4.37664 3.8985 5.49293 3.8985Z" fill="#ff5e0d"/>
<path d="M7.94217 5.95209H13.368C13.8453 5.95209 14.2321 5.5788 14.2321 5.11838C14.2321 4.65796 13.8452 4.28467 13.368 4.28467C8.70453 4.28213 3.91489 4.28132 3.7994 4.28688C3.45244 4.30365 3.11259 4.44902 2.95971 4.77217L0.0782262 10.8626C-0.119933 11.2815 0.071358 11.776 0.505493 11.9673C0.940305 12.1587 1.45253 11.9735 1.65052 11.5551L3.04314 8.61169C3.04314 11.9117 3.0406 18.9897 3.0406 18.9897C3.0406 19.5423 3.50492 19.9902 4.07769 19.9902C4.65046 19.9902 5.1147 19.5422 5.1147 18.9897V13.0276H5.87079V18.9897C5.87079 19.5423 6.33511 19.9902 6.90779 19.9902C7.48056 19.9902 7.9448 19.5422 7.9448 18.9897C7.9448 7.02714 7.94217 13.8541 7.94217 5.95209Z" fill="#ff5e0d"/>
<path d="M24.6068 10.5715H23.2593L22.3194 8.28286C22.1162 7.78792 21.6202 7.46289 21.0684 7.46289H13.8121C13.2521 7.46289 12.7507 7.79741 12.5531 8.30282L11.6657 10.5716H10.3422C10.1252 10.5716 9.94922 10.7414 9.94922 10.9508V11.665C9.94922 11.8743 10.1252 12.0442 10.3422 12.0442H11.2564V14.9865C11.2564 15.4624 11.6562 15.8483 12.1496 15.8483H12.5566V16.0937C12.5566 16.7714 13.126 17.3208 13.8284 17.3208C14.5309 17.3208 15.1003 16.7714 15.1003 16.0937V15.8483H19.8487V16.0937C19.8487 16.7714 20.4181 17.3208 21.1205 17.3208C21.823 17.3208 22.3924 16.7714 22.3924 16.0937V15.8483H22.7993C23.2927 15.8483 23.6925 15.4624 23.6925 14.9865V12.0442H24.6068C24.8238 12.0442 24.9998 11.8744 24.9998 11.665V10.9508C24.9999 10.7413 24.8238 10.5715 24.6068 10.5715ZM15.2834 13.8396C15.2834 14.0531 15.1001 14.2189 14.8904 14.2189H12.7666C12.5567 14.2189 12.3736 14.0531 12.3736 13.8396V13.1255C12.3736 12.9121 12.5569 12.7463 12.7666 12.7463H14.8904C15.1002 12.7463 15.2834 12.9121 15.2834 13.1255V13.8396ZM22.5755 13.8396C22.5755 14.0531 22.3922 14.2189 22.1825 14.2189H20.0587C19.8488 14.2189 19.6657 14.0531 19.6657 13.8396V13.1255C19.6657 12.9121 19.849 12.7463 20.0587 12.7463H22.1825C22.3923 12.7463 22.5755 12.9121 22.5755 13.1255V13.8396Z" fill="#ff5e0d"/>
<path d="M16.2243 6.8082H18.7257C19.077 6.8082 19.3616 6.53356 19.3616 6.19463C19.3616 5.85569 19.077 5.58105 18.7257 5.58105H16.2243C15.873 5.58105 15.5884 5.85569 15.5884 6.19463C15.5884 6.53356 15.873 6.8082 16.2243 6.8082Z" fill="#ff5e0d"/>
</svg>
