<svg width="20" height="23" viewBox="0 0 20 23" fill="none" xmlns="http://www.w3.org/2000/svg">
<g clip-path="url(#clip0_561_10770)">
<path d="M9.9999 0.927246C6.17296 0.927246 3.05957 4.21094 3.05957 8.24673C3.05957 12.1315 9.35666 21.2078 9.62478 21.5921L9.87502 21.9513C9.90428 21.9935 9.95088 22.0182 9.9999 22.0182C10.0497 22.0182 10.096 21.9935 10.1256 21.9513L10.3756 21.5921C10.6439 21.2078 16.9408 12.1315 16.9408 8.24673C16.9408 4.21094 13.8269 0.927246 9.9999 0.927246ZM9.9999 5.62491C11.3711 5.62491 12.4861 6.80079 12.4861 8.24673C12.4861 9.69193 11.3711 10.8686 9.9999 10.8686C8.62951 10.8686 7.51369 9.69193 7.51369 8.24673C7.51369 6.80079 8.62946 5.62491 9.9999 5.62491Z" fill="#424950"/>
</g>
<defs>
<clipPath id="clip0_561_10770">
<rect width="20" height="21.0909" fill="white" transform="translate(0 0.927246)"/>
</clipPath>
</defs>
</svg>
