<svg width="18" height="21" viewBox="0 0 21 24" fill="none" xmlns="http://www.w3.org/2000/svg">
<path d="M8.71795 0.927246C3.89744 0.927246 0 5.03727 0 10.1207C0 15.2042 3.89744 19.3142 8.71795 19.3142C13.5385 19.3142 17.4359 15.2042 17.4359 10.1207C17.4359 5.03727 13.5385 0.927246 8.71795 0.927246ZM8.71795 17.151C5.02564 17.151 2.05128 14.0144 2.05128 10.1207C2.05128 6.22701 5.02564 3.09042 8.71795 3.09042C12.4103 3.09042 15.3846 6.22701 15.3846 10.1207C15.3846 14.0144 12.4103 17.151 8.71795 17.151Z" fill="white"/>
<path d="M15.0845 15.9218C14.7045 15.521 14.0715 15.5042 13.6708 15.8842C13.27 16.2643 13.2532 16.8972 13.6333 17.298L15.0845 15.9218ZM18.7615 22.7059C19.1415 23.1066 19.7744 23.1234 20.1752 22.7434C20.5759 22.3634 20.5927 21.7304 20.2127 21.3297L18.7615 22.7059ZM13.6333 17.298L18.7615 22.7059L20.2127 21.3297L15.0845 15.9218L13.6333 17.298Z" fill="white"/>
</svg>
