<svg width="22" height="22" viewBox="0 0 22 22" fill="none" xmlns="http://www.w3.org/2000/svg">
<g clip-path="url(#clip0_357_1054)">
<path d="M5.38745 12.6353C5.41348 12.7862 5.44104 12.9373 5.47459 13.0865L5.69184 14.0633C6.01069 14.1175 6.33648 14.1175 6.65552 14.0633L6.87259 13.0865C6.90575 12.9373 6.93389 12.7862 6.95992 12.6353C6.69813 12.6541 6.43595 12.6673 6.17378 12.6673C5.91161 12.6673 5.64866 12.6541 5.38745 12.6353Z" fill="#424950"/>
<path d="M7.77344 12.5451C7.73701 12.7843 7.6944 13.0224 7.64351 13.2581L7.52515 13.7965C8.18251 13.4837 8.71226 12.9539 9.02533 12.2964L8.48671 12.4147C8.25114 12.4678 8.01422 12.5092 7.77344 12.5451Z" fill="#424950"/>
<path d="M7.52368 8.09473L7.64224 8.63334C7.69467 8.87007 7.73573 9.10699 7.77217 9.34622C8.01102 9.38227 8.24948 9.42526 8.48505 9.47577L9.02366 9.59413C8.7106 8.93715 8.18104 8.4076 7.52368 8.09473Z" fill="#424950"/>
<path d="M7.86328 10.1592C7.90145 10.6828 7.90145 11.2083 7.86328 11.7316C8.01442 11.7052 8.16517 11.6777 8.31495 11.6445L9.29117 11.4273C9.34592 11.1082 9.34592 10.7822 9.29117 10.4632L8.31495 10.2461C8.16517 10.213 8.01403 10.1852 7.86328 10.1592Z" fill="#424950"/>
<path d="M11.8831 5.41846H0.433838V21.6054C0.433838 21.8234 0.610613 22.0002 0.828641 22.0002H11.8831C12.1012 22.0002 12.2779 21.8234 12.2779 21.6054V5.81326C12.2779 5.59523 12.1012 5.41846 11.8831 5.41846ZM8.54273 20.421H3.80509V19.6314H8.54273V20.421ZM9.33233 18.8418H3.01548V18.0522H9.33233V18.8418ZM4.19989 17.2625V16.4729H4.9895V17.2625H4.19989ZM5.7791 17.2625V16.4729H6.56871V17.2625H5.7791ZM7.35832 17.2625V16.4729H8.14792V17.2625H7.35832ZM6.17391 14.8937C3.99343 14.8937 2.22587 13.1262 2.22587 10.9457C2.22587 8.76522 3.99343 6.99767 6.17391 6.99767C8.35439 6.99767 10.1219 8.76522 10.1219 10.9457C10.1196 13.125 8.35342 14.8912 6.17391 14.8937Z" fill="#424950"/>
<path d="M3.32275 9.59579L3.86117 9.47723C4.09809 9.42518 4.33501 9.38373 4.57425 9.34768C4.6101 9.10845 4.65309 8.87037 4.7036 8.6348L4.82216 8.09619C4.16518 8.40926 3.63582 8.93881 3.32275 9.59579Z" fill="#424950"/>
<path d="M10.122 3.28618C10.122 3.16358 10.0651 3.04792 9.96817 2.97312C9.87101 2.89832 9.74474 2.87288 9.62619 2.9043L3.08398 4.62848H10.122V3.28618Z" fill="#424950"/>
<path d="M6.95992 9.25615C6.93389 9.10502 6.90575 8.95427 6.87259 8.80448L6.65552 7.82788C6.33648 7.77352 6.01069 7.77352 5.69184 7.82788L5.47459 8.80448C5.44104 8.95427 5.41348 9.10502 5.38745 9.25615C5.91084 9.21798 6.43634 9.21798 6.95992 9.25615Z" fill="#424950"/>
<path d="M4.57425 12.5448C4.33502 12.5089 4.09694 12.4659 3.86117 12.4152L3.32275 12.2969C3.63582 12.9542 4.16557 13.484 4.82293 13.797L4.70457 13.2586C4.65155 13.0221 4.61011 12.784 4.57425 12.5448Z" fill="#424950"/>
<path d="M4.48408 11.7313C4.44572 11.2081 4.44572 10.6826 4.48408 10.1592C4.33275 10.1852 4.182 10.213 4.03241 10.2461L3.05601 10.4632C3.00184 10.7822 3.00184 11.1082 3.05601 11.4273L4.03241 11.6445C4.182 11.6777 4.33275 11.7052 4.48408 11.7313Z" fill="#424950"/>
<path d="M5.284 10.0559C5.23118 10.6477 5.23118 11.243 5.284 11.8348C5.87582 11.8876 6.47111 11.8876 7.06292 11.8348C7.11594 11.243 7.11594 10.6477 7.06292 10.0559C6.47111 10.0029 5.87582 10.0029 5.284 10.0559Z" fill="#424950"/>
<path d="M13.0676 13.2663L13.5355 13.2078C13.6589 13.1926 13.7822 13.2366 13.8684 13.3262L14.6513 14.1372L14.7783 13.7767L14.3673 12.9168C14.3222 12.8225 14.3164 12.714 14.3511 12.6153L16.2679 7.18517L16.0286 6.68164L15.5249 6.92261L14.8049 8.95773L14.3951 10.1165L13.6055 12.3494C13.5706 12.4483 13.4977 12.5291 13.4032 12.5742L13.0676 12.7373V13.2663Z" fill="#424950"/>
<path d="M14.1987 0L13.2905 2.56622L13.1457 2.97683L12.4998 4.80626C12.8516 5.02005 13.0667 5.40155 13.0675 5.81313V8.26869L14.3704 7.81432L14.8327 6.50403C14.8676 6.40533 14.9401 6.32456 15.0345 6.27926L16.042 5.7977C16.2388 5.70344 16.4746 5.78672 16.5687 5.98354L17.0504 6.99079C17.0955 7.08525 17.1015 7.19397 17.0666 7.29287L16.6037 8.60316L17.8396 10.5882C17.9028 10.6899 17.9165 10.8151 17.8766 10.9282L17.4818 12.045C17.4383 12.1685 17.3361 12.2622 17.2094 12.2954C17.1769 12.304 17.1433 12.3083 17.1096 12.3083C17.0138 12.3083 16.9214 12.2736 16.8493 12.2106L15.6894 11.1931L15.1502 12.7222L15.5612 13.582C15.6063 13.6764 15.6121 13.7849 15.5774 13.8836L15.1826 15.0006C15.1369 15.1296 15.028 15.2257 14.8942 15.2549C14.8668 15.261 14.8387 15.2639 14.8105 15.2639C14.7037 15.2645 14.6012 15.2217 14.5264 15.1454L13.437 14.017L13.0675 14.0622V17.1853L16.1245 18.2645L21.6442 2.63022L14.1987 0ZM14.5008 3.45607L13.8239 3.21915L14.0869 2.47465L14.7637 2.71388L14.5008 3.45607ZM15.8548 3.93415L15.1778 3.69492L15.4407 2.95081L16.1178 3.18965L15.8548 3.93415ZM17.2083 4.41185L16.5316 4.173L16.7944 3.4285L17.4712 3.66542L17.2083 4.41185ZM18.5619 4.89012L17.8841 4.65069L18.1471 3.9062L18.8237 4.14543L18.5619 4.89012ZM19.2392 5.12897L19.5021 4.38428L20.1787 4.62313L19.9158 5.36782L19.2392 5.12897Z" fill="#424950"/>
<path d="M13.0676 11.5059L13.4563 10.4048L13.0676 10.421V11.5059Z" fill="#424950"/>
<path d="M16.9323 11.2326L17.0693 10.8444L16.2678 9.55664L15.9734 10.3912L16.9323 11.2326Z" fill="#424950"/>
<path d="M14.0342 8.76758L13.0676 9.10474V9.63025L13.7393 9.60268L14.0342 8.76758Z" fill="#424950"/>
</g>
<defs>
<clipPath id="clip0_357_1054">
<rect width="22" height="22" fill="white"/>
</clipPath>
</defs>
</svg>
