<svg width="44" height="31" viewBox="0 0 44 31" fill="none" xmlns="http://www.w3.org/2000/svg">
<rect width="44" height="30.1714" rx="3.77143" fill="white"/>
<path fill-rule="evenodd" clip-rule="evenodd" d="M13.3585 20.4389H10.693L8.69415 12.8132C8.59927 12.4625 8.39783 12.1523 8.10151 12.0062C7.36202 11.6389 6.54715 11.3466 5.6582 11.1991V10.9055H9.95219C10.5448 10.9055 10.9893 11.3466 11.0634 11.8588L12.1005 17.3594L14.7647 10.9055H17.3562L13.3585 20.4389ZM18.8368 20.4389H16.3194L18.3923 10.9055H20.9097L18.8368 20.4389ZM24.1678 13.5467C24.2419 13.0332 24.6864 12.7396 25.2049 12.7396C26.0198 12.6659 26.9074 12.8134 27.6482 13.1794L28.0927 11.1268C27.3519 10.8332 26.537 10.6858 25.7976 10.6858C23.3542 10.6858 21.5763 12.0063 21.5763 13.839C21.5763 15.2332 22.8357 15.9653 23.7246 16.4063C24.6864 16.8461 25.0568 17.1396 24.9827 17.5794C24.9827 18.239 24.2419 18.5326 23.5024 18.5326C22.6135 18.5326 21.7245 18.3127 20.9109 17.9454L20.4665 19.9993C21.3554 20.3653 22.3171 20.5127 23.2061 20.5127C25.9457 20.5852 27.6482 19.2659 27.6482 17.2858C27.6482 14.7922 24.1678 14.6461 24.1678 13.5467ZM36.459 20.4389L34.4602 10.9055H32.3132C31.8687 10.9055 31.4242 11.1991 31.2761 11.6389L27.5747 20.4389H30.1662L30.6834 19.0459H33.8675L34.1639 20.4389H36.459ZM32.682 13.4729L33.4215 17.0659H31.3486L32.682 13.4729Z" fill="#172B85"/>
</svg>
