<svg width="22" height="22" viewBox="0 0 22 22" fill="none" xmlns="http://www.w3.org/2000/svg">
<path d="M21.8473 8.08505C21.795 7.93281 21.6096 7.81441 21.4549 7.81441C20.7847 7.81441 20.1147 7.81441 19.4446 7.81441C19.2899 7.81441 19.1045 7.93281 19.0522 8.08505C19.001 8.23406 18.9627 8.36702 18.9373 8.49205L17.5945 4.77709C17.373 4.1645 16.7865 3.75293 16.1351 3.75293H5.86492C5.21353 3.75293 4.62708 4.1645 4.40549 4.7772L3.06263 8.4925C3.03715 8.36735 2.99891 8.23423 2.94768 8.08505C2.89539 7.93281 2.70998 7.81441 2.55529 7.81441C1.88522 7.81441 1.21516 7.81441 0.545034 7.81441C0.39034 7.81441 0.204929 7.93281 0.152639 8.08505C-0.0509448 8.6778 -0.0508333 9.01712 0.152695 9.60993C0.204985 9.76217 0.390395 9.88057 0.54509 9.88057C1.21521 9.88057 1.88528 9.88057 2.55534 9.88057C2.55724 9.88057 2.55924 9.88007 2.5612 9.88002L2.53087 9.96402C2.12097 10.1002 1.82502 10.4861 1.82502 10.9418V14.0526V14.309V17.7514C1.82502 18.0251 2.04677 18.2469 2.32043 18.2469H4.81378C5.08738 18.2469 5.30919 18.0251 5.30919 17.7514V15.3398H16.6908V17.7514C16.6908 18.0251 16.9126 18.2469 17.1862 18.2469H19.6796C19.9532 18.2469 20.175 18.0251 20.175 17.7514V14.309V14.0526V10.9418C20.175 10.4862 19.8792 10.1004 19.4694 9.96408L19.439 9.88002C19.4409 9.88007 19.4428 9.88052 19.4447 9.88052C20.1148 9.88052 20.7848 9.88052 21.4549 9.88052C21.6097 9.88052 21.795 9.76211 21.8473 9.60987C22.0508 9.01713 22.0507 8.6778 21.8473 8.08505ZM6.05462 5.57604H15.9441L17.511 9.91095H4.48777L6.05462 5.57604ZM6.33045 12.9648H4.24455C3.79703 12.9648 3.43429 12.602 3.43429 12.1545C3.43429 11.707 3.79697 11.3442 4.24455 11.3442H6.33045C6.77793 11.3442 7.14072 11.707 7.14072 12.1545C7.14078 12.602 6.77793 12.9648 6.33045 12.9648ZM17.7553 12.9648H15.6694C15.2219 12.9648 14.8591 12.602 14.8591 12.1545C14.8591 11.707 15.2219 11.3442 15.6694 11.3442H17.7553C18.2028 11.3442 18.5656 11.707 18.5656 12.1545C18.5656 12.602 18.2028 12.9648 17.7553 12.9648Z" fill="#424950"/>
</svg>
