<svg width="22" height="22" viewBox="0 0 22 22" fill="none" xmlns="http://www.w3.org/2000/svg">
<path d="M12.5052 3.86719H9.4948C8.55766 4.93539 7.38117 5.75824 6.05859 6.27258V10.2158C6.05859 13.5506 7.98918 16.5413 11 17.9102C14.0108 16.5413 15.9414 13.5506 15.9414 10.2158V6.27301C14.6184 5.75867 13.4423 4.93582 12.5052 3.86719ZM14.4637 9.41145L10.453 13.4218C10.3271 13.5477 10.1621 13.6108 9.99754 13.6108C9.83254 13.6108 9.66754 13.5476 9.54164 13.4218L7.53629 11.4168C7.28492 11.165 7.28492 10.7568 7.53629 10.505C7.78809 10.2537 8.19629 10.2537 8.44809 10.505L9.99754 12.0545L13.5523 8.50012C13.8037 8.24832 14.2119 8.24832 14.4637 8.50012C14.7151 8.75187 14.7151 9.15965 14.4637 9.41145ZM19.1602 3.00781C17.3022 3.00781 15.6101 1.98688 14.743 0.34375C14.6317 0.132344 14.4121 0 14.1732 0H7.82671C7.58781 0 7.36824 0.132344 7.25652 0.34375C6.38988 1.98688 4.69777 3.00781 2.83594 3.00781C2.48016 3.00781 2.19141 3.29656 2.19141 3.65234V10.2158C2.19141 12.8545 3.01598 15.3742 4.57574 17.5025C6.13551 19.6307 8.28953 21.1754 10.8058 21.9699C10.8689 21.9901 10.9347 22 11 22C11.0653 22 11.1311 21.9901 11.1942 21.9699C13.7105 21.1754 15.8645 19.6307 17.4243 17.5025C18.984 15.3742 19.8086 12.8545 19.8086 10.2158V3.65234C19.8086 3.29656 19.516 3.00781 19.1602 3.00781ZM17.2305 10.1866C17.2305 14.1337 14.8822 17.6636 11.2479 19.1791C11.1684 19.2122 11.0842 19.2285 11 19.2285C10.9158 19.2285 10.8311 19.2122 10.7521 19.1791C7.11777 17.6636 4.76953 14.1337 4.76953 10.1866V5.79004C4.76953 5.5116 4.94828 5.26453 5.21297 5.17773C6.58066 4.72785 7.78551 3.9007 8.69687 2.78566C8.81934 2.6357 9.00281 2.54891 9.19617 2.54891H12.8038C13.0015 2.54891 13.2344 2.70187 13.3031 2.78566C14.2144 3.9007 15.4193 4.72785 16.787 5.17773C16.9757 5.23961 17.12 5.3827 17.1879 5.56102C17.1888 5.56273 17.1892 5.56488 17.19 5.5666C17.2064 5.61086 17.218 5.65727 17.2245 5.70496C17.2249 5.70969 17.2257 5.71484 17.2262 5.71957C17.2287 5.74277 17.2305 5.76598 17.2305 5.79004V10.1866Z" fill="#424950"/>
</svg>
