<svg width="22" height="22" viewBox="0 0 22 22" fill="none" xmlns="http://www.w3.org/2000/svg">
<path d="M9.71094 16.7578H12.2891V22H9.71094V16.7578Z" fill="#ff5e0d"/>
<path d="M5.2002 22H8.42186V15.4688H13.5781V22H16.8151V0H5.2002V22ZM14.2226 2.57812H15.5117V3.86719H14.2226V2.57812ZM14.2226 5.15625H15.5117V6.44531H14.2226V5.15625ZM14.2226 7.73438H15.5117V9.02344H14.2226V7.73438ZM14.2226 10.3125H15.5117V11.6016H14.2226V10.3125ZM14.2226 12.8906H15.5117V14.1797H14.2226V12.8906ZM11.6445 2.57812H12.9336V3.86719H11.6445V2.57812ZM11.6445 5.15625H12.9336V6.44531H11.6445V5.15625ZM11.6445 7.73438H12.9336V9.02344H11.6445V7.73438ZM11.6445 10.3125H12.9336V11.6016H11.6445V10.3125ZM11.6445 12.8906H12.9336V14.1797H11.6445V12.8906ZM9.06639 2.57812H10.3555V3.86719H9.06639V2.57812ZM9.06639 5.15625H10.3555V6.44531H9.06639V5.15625ZM9.06639 7.73438H10.3555V9.02344H9.06639V7.73438ZM9.06639 10.3125H10.3555V11.6016H9.06639V10.3125ZM9.06639 12.8906H10.3555V14.1797H9.06639V12.8906ZM6.48827 2.57812H7.77733V3.86719H6.48827V2.57812ZM6.48827 5.15625H7.77733V6.44531H6.48827V5.15625ZM6.48827 7.73438H7.77733V9.02344H6.48827V7.73438ZM6.48827 10.3125H7.77733V11.6016H6.48827V10.3125ZM6.48827 12.8906H7.77733V14.1797H6.48827V12.8906Z" fill="#ff5e0d"/>
<path d="M18.0742 5.15625H22V22H18.0742V5.15625Z" fill="#ff5e0d"/>
<path d="M0 5.15625H3.90998V22H0V5.15625Z" fill="#ff5e0d"/>
</svg>
