<?xml version="1.0" encoding="utf-8"?>
<!-- Generator: Adobe Illustrator 23.0.5, SVG Export Plug-In . SVG Version: 6.00 Build 0)  -->
<svg version="1.1" id="Layer_1" xmlns="http://www.w3.org/2000/svg" xmlns:xlink="http://www.w3.org/1999/xlink" x="0px" y="0px"
	 viewBox="0 0 512 512" style="enable-background:new 0 0 512 512;" xml:space="preserve">
<g>
	<g>
		<g>
			<path d="M512,153.6c0,2.5-1.1,4.9-3,6.5l-81.5,69L398,254c-1.6,1.3-3.5,2-5.5,2c-1.2,0-2.4-0.3-3.6-0.8c-3-1.4-4.9-4.4-4.9-7.7
				v-68.3H25.6C11.5,179.2,0,167.7,0,153.6C0,139.5,11.5,128,25.6,128H384V59.7c0-3.3,1.9-6.3,4.9-7.8c3-1.4,6.6-0.9,9.1,1.2
				L509,147.1C510.9,148.7,512,151.1,512,153.6z"/>
		</g>
	</g>
	<g>
		<g>
			<path d="M512,358.4c0,14.1-11.5,25.6-25.6,25.6H128v68.3c0,3.3-1.9,6.3-4.9,7.7c-1.2,0.5-2.4,0.8-3.6,0.8c-2,0-3.9-0.7-5.5-2
				L3,364.9c-1.9-1.6-3-4-3-6.5c0-2.5,1.1-4.9,3-6.5L114,258c2.5-2.2,6.1-2.6,9.1-1.2c3,1.4,4.9,4.4,4.9,7.7v68.3h358.4
				C500.5,332.8,512,344.3,512,358.4z"/>
		</g>
	</g>
</g>
</svg>
