<?xml version="1.0" encoding="utf-8"?>
<!-- Generator: Adobe Illustrator 23.1.0, SVG Export Plug-In . SVG Version: 6.00 Build 0)  -->
<svg version="1.1" id="Layer_1" xmlns="http://www.w3.org/2000/svg" xmlns:xlink="http://www.w3.org/1999/xlink" x="0px" y="0px"
	 viewBox="0 0 256 256" style="enable-background:new 0 0 256 256;" xml:space="preserve">
<path d="M226.8,181.7c-5.4,12-8,17.3-14.9,27.9c-9.7,14.8-23.4,33.2-40.3,33.3c-15.1,0.1-18.9-9.8-39.4-9.7
	c-20.4,0.1-24.7,9.8-39.8,9.7c-16.9-0.2-29.9-16.8-39.6-31.5c-27.1-41.4-30-89.8-13.2-115.6c11.9-18.3,30.7-29,48.3-29
	c18,0,29.2,9.9,44.1,9.9c14.4,0,23.2-9.9,44-9.9c15.7,0,32.3,8.6,44.2,23.3C181.3,111.4,187.6,166.9,226.8,181.7z M160.2,50.3
	c7.6-9.7,13.3-23.4,11.2-37.3c-12.3,0.8-26.7,8.7-35.2,18.9c-7.6,9.3-14,23.1-11.5,36.4C138.2,68.8,152.1,60.7,160.2,50.3z"/>
</svg>
