<svg xmlns="http://www.w3.org/2000/svg" viewBox="0 0 776.53 219.2"><defs><style>.cls-1{fill:#b0bebe;}.cls-2{fill:#bfc3c3;}.cls-3{fill:#a7bcbc;}.cls-4{fill:#bfc2c2;}.cls-5{fill:#526060;}.cls-6{fill:#bfc5c5;}.cls-7{fill:#a09d9d;}.cls-8{fill:#424e4e;}.cls-9{fill:#cac2c2;}.cls-10{fill:#a08d8d;}.cls-11{fill:#a8c6c6;}.cls-12{fill:#543d3d;}.cls-13{fill:#a5b8b8;}.cls-14{fill:#544848;}.cls-15{fill:#776868;}.cls-16{fill:#6b8585;}.cls-17{fill:#544444;}.cls-18{fill:#98a3a3;}.cls-19{fill:#7a9191;}.cls-20{fill:#9e8d8d;}.cls-21{fill:#4d5a5a;}.cls-22{fill:#7f7474;}.cls-23{fill:#b8acac;}.cls-24{fill:#516262;}.cls-25{fill:#c5c0c0;}.cls-26{fill:#272a2a;}.cls-27{fill:#ccbaba;}.cls-28{fill:#766767;}.cls-29{fill:#a2bcbc;}.cls-30{fill:#afa1a1;}.cls-31{fill:#95c5c5;}.cls-32{fill:#b8b2b2;}.cls-33{fill:#364444;}.cls-34{fill:#434949;}.cls-35{fill:#a7c3c3;}.cls-36{fill:#4a3434;}.cls-37{fill:#405454;}.cls-38{fill:#493d3d;}.cls-39{fill:#2b2f2f;}.cls-40{fill:#f65b00;}.cls-41{fill:#fff;}.cls-42{fill:#133c0f;}.cls-43{fill:#9c4200;}.cls-44{fill:#3f1b01;}.cls-45{fill:#311400;}.cls-46{fill:#1c571a;}.cls-47{fill:#5d2100;}.cls-48{fill:#313333;}.cls-49{fill:#972e00;}.cls-50{fill:#404545;}.cls-51{fill:#bec2c2;}.cls-52{fill:#472000;}.cls-53{fill:#9a3100;}.cls-54{fill:#551b00;}.cls-55{fill:#273737;}.cls-56{fill:#461600;}.cls-57{fill:#8e3900;}.cls-58{fill:#360d00;}.cls-59{fill:#5d2b00;}.cls-60{fill:#543e3e;}.cls-61{fill:#3c1a00;}.cls-62{fill:#343737;}.cls-63{fill:#1d441b;}.cls-64{fill:#4e2b10;}.cls-65{fill:#323737;}.cls-66{fill:#424040;}.cls-67{fill:#4a1300;}.cls-68{fill:#5c1800;}.cls-69{fill:#531a00;}.cls-70{fill:#253333;}.cls-71{fill:#361400;}.cls-72{fill:#343535;}.cls-73{fill:#6b6868;}.cls-74{fill:#404848;}.cls-75{fill:#373d3d;}.cls-76{fill:#473c3c;}.cls-77{fill:#b13b00;}.cls-78{fill:#511600;}.cls-79{fill:#4d2b00;}.cls-80{fill:#31c531;}</style></defs><title>Asset 1</title><g id="Layer_2" data-name="Layer 2"><g id="Layer_1-2" data-name="Layer 1"><path d="M297,114c-5.6,2-8.78,6.15-10.18,11.81a22.78,22.78,0,0,0-.57,5.51q0,5.13,0,10.25V179.8c0,2.06.16,1.91-1.84,1.91H265.5c-.7,0-.76-.09-.79-.84,0-.46,0-.92,0-1.39q0-23.88,0-47.77a24,24,0,0,0-.78-6.7c-.2-.66-.43-1.32-.65-2a8,8,0,0,0-.65-1.43,17.07,17.07,0,0,0-4.43-5.28,16.4,16.4,0,0,0-9-3.37,19.07,19.07,0,0,0-8.86,1.29A15.28,15.28,0,0,0,232.3,122a17.79,17.79,0,0,0-1.76,7.19c0,1.1-.06,2.2-.06,3.3q0,23.53,0,47.07c0,2.39.28,2.16-2.1,2.16H210.81l-1.39,0c-.36,0-.5-.24-.53-.56a4.43,4.43,0,0,1,0-.52V97.24c0-1.36,0-1.32,1.33-1.32H229c.18,0,.35,0,.52,0,.91,0,1,.08,1,1,0,1.56,0,3.13,0,4.69,0,.21-.06.51.25.55a.67.67,0,0,0,.43-.19c.86-.7,1.67-1.44,2.55-2.1A31.91,31.91,0,0,1,247.29,94a35.12,35.12,0,0,1,10.39-.33,36.24,36.24,0,0,1,7.94,1.8A30.45,30.45,0,0,1,281,107.29c.13.19.24.4.37.59s.5.33.71.07.46-.67.69-1a31.24,31.24,0,0,1,18.38-12.56,34.89,34.89,0,0,1,12.6-.71,33.36,33.36,0,0,1,8.25,2,29.91,29.91,0,0,1,14.46,11.45,33.05,33.05,0,0,1,5.44,15.38,50.14,50.14,0,0,1,.24,5.2q0,26,0,51.94c0,2.27.27,2.06-2,2.06H321.38c-.67,0-.76-.12-.78-.84,0-.46,0-.92,0-1.39q0-23.88,0-47.76a23.31,23.31,0,0,0-1-7.2,15.89,15.89,0,0,0-11.8-11.15,16.64,16.64,0,0,0-5.17-.41A20.83,20.83,0,0,0,297,114Z"/><path d="M670.36,145.14V100.49c0-.52,0-1,0-1.56a.52.52,0,0,0-.56-.53H649.43a.58.58,0,0,0-.65.63c0,1.11,0,2.2,0,3.3,0,.87,0,1.74,0,2.6a.36.36,0,0,1-.52.27c-.19-.12-.37-.28-.55-.42a44.13,44.13,0,0,0-10.56-6,42.27,42.27,0,0,0-13.87-2.9A45.8,45.8,0,0,0,609,97.7a44.9,44.9,0,0,0-25.4,18.79,44.17,44.17,0,0,0-6.24,32.41,43.06,43.06,0,0,0,5.81,14.95,45,45,0,0,0,31.52,20.66,44.75,44.75,0,0,0,15.05-.27A42.93,42.93,0,0,0,643.41,179a44.64,44.64,0,0,0,4.59-3.12.37.37,0,0,1,.61.29c0,.18,0,.35,0,.52,0,3.13,0,6.26,0,9.38a20.8,20.8,0,0,1-.51,4.31,12.15,12.15,0,0,1-4.31,7.32,13.84,13.84,0,0,1-4.46,2.27,20.64,20.64,0,0,1-6.35.87H616.12c-.4,0-.81,0-1.21,0-1,0-1,.24-1,.95v15.63c0,.35,0,.7,0,1.05,0,.51.22.68.77.7s.93,0,1.39,0c6.84,0,13.68,0,20.52,0a45.22,45.22,0,0,0,11.54-1.31A28.62,28.62,0,0,0,669.47,196a37.46,37.46,0,0,0,.9-8.78Q670.36,166.16,670.36,145.14Zm-46.9,20.74a25.5,25.5,0,1,1,25.47-25.43A25.32,25.32,0,0,1,623.46,165.88Z"/><path d="M479.4,11l-.08,0a.27.27,0,0,0-.1-.06,23.39,23.39,0,0,0-6.34-2.25,1.6,1.6,0,0,1-.67-.18,2.11,2.11,0,0,0-.43-.12,2.51,2.51,0,0,1-1-.22,3,3,0,0,0-.39-.14,3.76,3.76,0,0,1-.82-.19l-.37-.09,0,0a3.9,3.9,0,0,1-1-.29,1.64,1.64,0,0,0-.62-.13,2.6,2.6,0,0,1-1.23-.18,1.85,1.85,0,0,0-.4-.12,3.14,3.14,0,0,1-1.21-.31,2.84,2.84,0,0,0-.42-.09,4.72,4.72,0,0,1-1.45-.17,1.13,1.13,0,0,0-.41,0,.4.4,0,0,0-.15,0c-.12,0-.23.12-.35,0s0,0-.05,0h0a1.07,1.07,0,0,0-.31-.13A3.72,3.72,0,0,1,459.83,6a1.8,1.8,0,0,0-.45-.09c-1-.1-1.94.18-2.87-.21a1.27,1.27,0,0,0-.92,0,1,1,0,0,1-.86,0,3.34,3.34,0,0,0-.43-.1,1.63,1.63,0,0,0-.44,0,3.33,3.33,0,0,0-.4.16.63.63,0,0,1-.28.08,3,3,0,0,1-.75-.23,2,2,0,0,0-.87.12,3.2,3.2,0,0,1-1.71.06.8.8,0,0,0-.43,0,4,4,0,0,1-.9.16,3.41,3.41,0,0,0-.46.1c-.73.17-1.48.17-2.22.29A34.53,34.53,0,0,0,436,9.9l-.32.2h0a.35.35,0,0,0-.1.08,19.85,19.85,0,0,0-3.08,2.34c-.26.21-.52.45-.77.69a8.82,8.82,0,0,1-.87.86.72.72,0,0,1-1.25-.52c-.06-.46,0-.93-.11-1.38-.44-2.33-.9-4.64-1.35-7a3.7,3.7,0,0,0-.24-.82A23.42,23.42,0,0,1,426.86.9c-.21-.82-.26-.88-1-.88q-3.3,0-6.6,0c-.65,0-.75.16-.64.88a4.16,4.16,0,0,0,.16.5,1.51,1.51,0,0,1,.26.78v0c0,.27,0,.54,0,.82a1.59,1.59,0,0,0,.07.38c.42,1.39.79,2.81,1.12,4.22v0c.07.31.14.59.2.89,0,.11,0,.24.07.35s0,0,0,.07a.94.94,0,0,1,0,.16,78,78,0,0,1,1.29,8.49,55.06,55.06,0,0,1,0,11.55c0,.05,0,.09,0,.13,0,.3-.07.61-.11.92-.09.66-.19,1.32-.31,2h0c0,.21-.08.41-.13.63a0,0,0,0,1,0,0c-.06.4-.14.78-.23,1.18,0,0,0,0,0,0q-.08.38-.18.75s0,0,0,0c-.05.23-.11.44-.16.67a.11.11,0,0,1,0,.06c-.05.19-.1.39-.16.58,0,0,0,0,0,0s0,.09,0,.12a.43.43,0,0,1-.05.12,0,0,0,0,1,0,0h0c-.06.27-.14.53-.22.81a2.63,2.63,0,0,1-3.07,2,16.47,16.47,0,0,0-2,.1c-.75.07-1.5.19-2.26.26-.58.09-1.16.2-1.74.31h0l-.34.08-.4.08s0,0,0,0c-1.61.35-3.2.77-4.77,1.24,0,0,0,0,0,0-.19,0-.39.1-.58.16h0l-.06,0-.33.09h0l-.13,0a1.21,1.21,0,0,0-.32.11h0a.61.61,0,0,0-.17.07l-.57.19c-1.32.43-2.61.9-3.88,1.44h0c-.23.1-.47.19-.7.31A60.9,60.9,0,0,0,393,46.7h0l-.78.44,0,0-.19.1c-2.1,1-3.82,2.58-5.75,3.84l-.37.27-.18.13a2.76,2.76,0,0,0-.3.29l-.15.15c-.09.1-.19.2-.28.31l-.14.13-.29.27-.15.14-.31.28s-.06.06-.09.06a.42.42,0,0,1-.16.14.25.25,0,0,1-.08.07c-2.28,2-4.2,4.42-6.33,6.58l-.12.12a46.44,46.44,0,0,0-4.78,6.65.11.11,0,0,0,0,.06l-.09.14-.09.14c-1,1.75-1.94,3.55-2.84,5.37l-.12.25c-.07.13-.13.27-.2.41a34.14,34.14,0,0,0-1.33,3.34c-1.54,3.77-2.62,7.7-4,11.54a3,3,0,0,1-1.09.82,48.2,48.2,0,0,0-6.34,4.46c-.67.55-1.23,1.22-1.85,1.81a21.86,21.86,0,0,0-4.34,5.31c-.31.63-.79,1.16-1.07,1.79a13.09,13.09,0,0,0-1.62,4.15,16.71,16.71,0,0,0-.35,6.86,22.22,22.22,0,0,0,3.13,8.19c.56.89,1.25,1.65,1.87,2.49a34.39,34.39,0,0,0,4.51,4.52,22.53,22.53,0,0,0,3.11,2.18,36.52,36.52,0,0,0,7.87,4,3,3,0,0,1,1.17.59l.05.06,0,0a2.22,2.22,0,0,1,.55.92,13.11,13.11,0,0,1,.58,2.85.35.35,0,0,1,0,.06,3.82,3.82,0,0,0,.09.44c.06.19.1.35.14.53s.08.36.13.54c0,0,0,.07,0,.1s0,0,0,0c.28,1.26.55,2.52.77,3.79.08.44.16.88.22,1.32s.08.61.11.9a.17.17,0,0,1,0,.07l0,.27a22.64,22.64,0,0,1,.16,3.39c0,.26,0,.53,0,.8a2.45,2.45,0,0,0,0,.27,6.21,6.21,0,0,1-.07.73c0,.2-.07.41-.11.62v0a.19.19,0,0,1,0,.08v0c-.05.25-.1.49-.16.74a2,2,0,0,1-.07.23.42.42,0,0,1,0,.12c0,.12-.07.23-.11.35a.09.09,0,0,1,0,0,4.59,4.59,0,0,1-.15.44c-.08.21-.16.44-.23.64,0,0,0,0,0,.05s-.11.31-.16.45v0c0,.11-.07.23-.11.35-.26.75-.47,1.5-.66,2.25,0,0,0,.07,0,.11l-.15.59s0,0,0,.06c-.1.39-.18.77-.26,1.17,0,.06,0,.13,0,.2v.05s0,.12-.05.18,0,0,0,0l-.06.32h0c0,.14-.05.29-.08.42l0,.21h0c0,.15,0,.29-.07.43a.4.4,0,0,0,0,.11c0,.11,0,.2-.06.3s0,0,0,0c0,.27-.08.53-.11.79,0,0,0,0,0,0l0,.29,0,.23h0a2.29,2.29,0,0,0,0,.25l0,.31c-.07.66-.11,1.33-.14,2,0,0,0,0,0,.05h0a38.91,38.91,0,0,0,0,4.18v0c0,.42.05.85.09,1.26a.11.11,0,0,0,0,.06c.06.84.16,1.67.28,2.52a20.52,20.52,0,0,0,2.48,7.1c.09.2.18.35.27.54a.11.11,0,0,1,0,.06l.13.27a33.72,33.72,0,0,0,3.37,4.75,3.65,3.65,0,0,0,.31.36l.17.18a2.55,2.55,0,0,0,.38.26.94.94,0,0,1,.18.12l.09.07.09.08a3.09,3.09,0,0,0,.5.57s0,0,0,0l.13.12a0,0,0,0,1,0,0,9.76,9.76,0,0,1,.86.84s0,0,0,0,.1.12.15.18a2.57,2.57,0,0,0,.35.29l.34.21h0a13.61,13.61,0,0,1,1.77,1.13h0a2.26,2.26,0,0,1,.29.25.61.61,0,0,1,.1.07l.09.07.07.06a1.56,1.56,0,0,0,.4.27,4.09,4.09,0,0,1,.64.37,5.08,5.08,0,0,0,.47.23l.15,0H383c.12,0,.23.07.34.12h0c.68.25,1.34.54,2,.78l.53.19c.4.13.81.24,1.22.35s.92.24,1.39.34a1,1,0,0,0,.23,0,37.17,37.17,0,0,0,10.22.29h0l1.37-.28c2.22-.47,4.43-1,6.61-1.6a.1.1,0,0,1,.07,0l.34-.1.73-.2a.3.3,0,0,1,.15,0c.4-.13.79-.25,1.19-.4l.11,0a2.33,2.33,0,0,0,.25-.07,47.54,47.54,0,0,1,4.61-1.62h0l.44-.1a36.15,36.15,0,0,0,5.9-2.53,1.37,1.37,0,0,0,.37-.26l0,0a.73.73,0,0,1,.08-.09l.06-.09h0a2.5,2.5,0,0,1,.33-.32l0,0a6.91,6.91,0,0,1,1.17-.63s0,0,0,0,.29-.13.43-.21a3.22,3.22,0,0,0,.39-.25l.31-.21s0,0,0,0a24.67,24.67,0,0,1,2.6-1.36l.09,0,.27-.13a2.84,2.84,0,0,0,.39-.25l.24-.18h0a4,4,0,0,1,.34-.22l.11-.07.37-.21.21-.1h0a.31.31,0,0,0,.12-.05l0,0h0a3.71,3.71,0,0,0,.4-.19c.56-.31,1.07-.67,1.6-1,2.17-1.38,4.1-3.07,6.26-4.47a.53.53,0,0,0,.1-.06l.08,0a16.78,16.78,0,0,0,3.35-2.68A94,94,0,0,0,450.71,165c2.45-3.12,5.08-6.1,7-9.59l.1-.21h0a2.26,2.26,0,0,1,.11-.22c.84-1.77,2-3.35,3-5,2-3.42,3.62-7,5.53-10.51a1.39,1.39,0,0,1,.11-.21l.06-.12c1.22-2.09,1.8-4.45,2.81-6.63a2.08,2.08,0,0,0,.14-.7,3,3,0,0,1,.06-.34l0,0a0,0,0,0,0,0,0c0-.1.09-.18.13-.28l.06-.17h0l.09-.26h0a.24.24,0,0,1,0-.08.58.58,0,0,0,.06-.17.21.21,0,0,0,0-.12s0,0,0,0c0-.17.11-.33.16-.5s.13-.33.18-.5a3.81,3.81,0,0,1,.17-.51c.06-.13.14-.26.2-.39v0a.36.36,0,0,0,0-.09,1.13,1.13,0,0,0,.09-.35s0,0,0,0a1.13,1.13,0,0,0,0-.18s0,0,0-.06h0a3.69,3.69,0,0,1,.19-.67,2.29,2.29,0,0,0,.12-.37h0a2,2,0,0,1,.07-.23h0c.05-.16.12-.34.18-.51a1.66,1.66,0,0,0,.06-.21v0s0,0,0,0,0,0,0,0l0,0v0a3.73,3.73,0,0,1,.34-1,12.15,12.15,0,0,0,.63-2.05c.06-.22.13-.42.21-.63h0c0-.08.07-.18.11-.26a2.84,2.84,0,0,0,.09-.42h0a.56.56,0,0,0,0-.07c.06-.3.13-.58.2-.89a.26.26,0,0,1,0-.11c.29-1.3.63-2.57,1-3.87a1.94,1.94,0,0,0,0-.2l.18-.67h0l.09-.35v0c.06-.2.12-.38.17-.58,0,0,0,0,0,0s.05-.17.07-.27c.07-.34.14-.7.2-1l.12-.53c.41-2,.77-4.09,1.05-6.15h0a.06.06,0,0,0,0-.06h0s0,0,0-.06c.05-.3.1-.59.14-.9V105c0-.18.05-.37.07-.55a1.94,1.94,0,0,0,0-.2l0-.21,0-.18s0,0,0,0a1.29,1.29,0,0,1,0-.19,1.65,1.65,0,0,0,0-.21s0,0,0,0a1.27,1.27,0,0,0,0-.2v-.1a10.33,10.33,0,0,1,.21-2.93c0-.05,0-.13,0-.19s0,0,0,0,0,0,0,0V99.8a.8.8,0,0,0,0-.21,8.54,8.54,0,0,0,.05-1,11.8,11.8,0,0,1,.06-1.68h0c0-.16.05-.31.08-.46a1.17,1.17,0,0,0,0-.27c0-.23,0-.46,0-.7h0c0-.13-.07-.27-.09-.41v0a1.76,1.76,0,0,1,0-.79v0a.14.14,0,0,1,0-.07,2.1,2.1,0,0,0,0-.56s0,0,0,0,0-.05,0-.08a3.21,3.21,0,0,1,0-1.57,2.07,2.07,0,0,0,0-.5A17.36,17.36,0,0,1,477,89.1h0c0-.2,0-.39,0-.6a11.3,11.3,0,0,0-.09-1.17c0-.15,0-.29-.05-.43s0,0,0,0c-.11-.83-.25-1.68-.3-2.52,0,0,0,0,0,0s0-.12,0-.18l0-.12h0c0-.08,0-.15,0-.21a0,0,0,0,1,0,0c0-.16-.09-.35-.12-.51s0,0,0-.08a.24.24,0,0,1,0-.12,1,1,0,0,1,0-.17,3.85,3.85,0,0,1-.08-.47s0,0,0,0,0,0,0,0h0s0,0,0,0a1.1,1.1,0,0,0,0-.18.25.25,0,0,0,0-.07s0,0,0,0a1.9,1.9,0,0,0-.09-.36,3.91,3.91,0,0,1-.1-.58s0,0,0,0l0-.24h0a4.85,4.85,0,0,0-.09-.57.34.34,0,0,1,0-.1.14.14,0,0,0,0-.06h0a.08.08,0,0,0,0,0,.2.2,0,0,0,0-.07,1.29,1.29,0,0,0-.07-.21c-.61-1.72-.77-3.56-1.58-5.22a2,2,0,0,1-.37-.85.1.1,0,0,1,0,0v0l-.07-.14v0a1.47,1.47,0,0,0-.1-.22c-.1-.2-.17-.43-.26-.63-.52-1.25-1.25-2.42-1.73-3.69a2.25,2.25,0,0,1-.24-.3.44.44,0,0,1-.08-.11,1.5,1.5,0,0,1-.22-.39.73.73,0,0,1-.09-.26.84.84,0,0,1,0-.12,1,1,0,0,0-.11-.17v0l-.14-.2-.3-.45s0,0,0,0l-1-1.57,0,0a4.78,4.78,0,0,1-.29-.44,2.55,2.55,0,0,0-.24-.39.47.47,0,0,1-.06-.09.09.09,0,0,1,0,0,.66.66,0,0,1-.12-.22,0,0,0,0,0,0,0l0,0s0,0,0,0a.11.11,0,0,1,0-.06,2.37,2.37,0,0,1-.13-.32,8.72,8.72,0,0,0-2.06-2.76h0l-.13-.06a1.4,1.4,0,0,1-.43-.31,51,51,0,0,0-8.26-8.42h0l-.09-.08,0,0-.15-.13-.39-.27c-.45-.32-.83-.74-1.3-1.06a2.79,2.79,0,0,1-.58-.51s0,0,0,0a.54.54,0,0,1,.12-.85v0a3.59,3.59,0,0,1,.61-.34c.36-.16.77-.14,1.12-.3h0l.09,0a13.25,13.25,0,0,0,1.68-.75s0,0,0,0l.09-.06a34.7,34.7,0,0,0,8.78-7.23h0l0,0a.84.84,0,0,1,.05-.17,1.68,1.68,0,0,1,.39-.76c4.54-5.06,7.64-11,10.21-17.19l0-.08h0c.72-2,1.53-3.94,2.29-5.91A4.6,4.6,0,0,0,479.4,11Zm-126,95.88a15.55,15.55,0,0,1,.93-4.53,22.88,22.88,0,0,1,4.6-7.67A19.53,19.53,0,0,1,362.78,91c.57.49.29,1.06.21,1.61-.18,1.44-.46,2.85-.52,4.28-.1,2.48,0,5-.08,7.47a54.34,54.34,0,0,0,.46,5.68,45.68,45.68,0,0,0,.64,4.78c.31,1.63.65,3.25,1,4.88a.71.71,0,0,0,.07.16,4.12,4.12,0,0,1,.33,1.84,3.5,3.5,0,0,0,.35,1.66c.19.43.33.87.47,1.29s.43.92,0,1.28-.72-.28-1.13-.17a20.86,20.86,0,0,1-5.69-4.75C355.4,117,353.16,112.45,353.4,106.92Z"/><path d="M776.19,135.83a42.17,42.17,0,0,0-3.39-12.15,44.66,44.66,0,0,0-12-16,47,47,0,0,0-12.21-7.54,48.85,48.85,0,0,0-30.48-2.5,47.6,47.6,0,0,0-24.85,15,44.73,44.73,0,0,0-7.56,12.19,43.78,43.78,0,0,0-1.93,27.56A44.2,44.2,0,0,0,696,173.27a47.79,47.79,0,0,0,33.53,13.37,42.81,42.81,0,0,0,9.64-.91,48.44,48.44,0,0,0,14.25-5.34,47.92,47.92,0,0,0,9.69-7.28,44.66,44.66,0,0,0,9.67-13.88,41.13,41.13,0,0,0,3.26-11.11A46.82,46.82,0,0,0,776.19,135.83Zm-22.1,12.53a24.71,24.71,0,0,1-13.38,16.44A23.79,23.79,0,0,1,726,167.14a34.7,34.7,0,0,1-5.33-1.36,25.61,25.61,0,0,1-16.49-20.61,26.14,26.14,0,0,1,3.12-16.58,25.42,25.42,0,0,1,40.36-5.31,24.32,24.32,0,0,1,4.74,6.8A26.11,26.11,0,0,1,754.09,148.36Z"/><path d="M199,163.48a.53.53,0,0,0-.57-.52H197c-1,0-2.09,0-3.12,0a4.19,4.19,0,0,1-3.95-3.12,9,9,0,0,1-.27-2.58V125.26a38.79,38.79,0,0,0-.36-5.9c-1.51-9.85-6.88-16.88-15.73-21.28a39.43,39.43,0,0,0-15.42-3.79,56.21,56.21,0,0,0-17.23,1.79,57.8,57.8,0,0,0-18.78,8.76,2.29,2.29,0,0,0-1,1,5.36,5.36,0,0,0,.84,1.67q3.27,5.53,6.55,11c.42.7.83,1.39,1.27,2.07a.5.5,0,0,0,.74.18c1.45-.86,2.87-1.75,4.34-2.56a37.89,37.89,0,0,1,16.23-4.64A22.23,22.23,0,0,1,161,115a11.36,11.36,0,0,1,7,8,21,21,0,0,1,.44,5.17c0,2,.22,2-2,2.11l-10.4.76c-3.12.23-6.25.43-9.37.65A72.7,72.7,0,0,0,136.08,133a32.73,32.73,0,0,0-11.81,4.86,21.14,21.14,0,0,0-7.26,8.45,26.35,26.35,0,0,0-2,15.26,24.1,24.1,0,0,0,9.57,16,30.11,30.11,0,0,0,14,5.8,36.74,36.74,0,0,0,13.82-.4,31.71,31.71,0,0,0,18.21-10.69c.18-.23.36-.46.72-.44a5,5,0,0,1,.38.56,16.67,16.67,0,0,0,9.76,8.1,21.4,21.4,0,0,0,7,1.2c3.07,0,6.14,0,9.22,0a6.12,6.12,0,0,0,.86,0,.46.46,0,0,0,.43-.46,8.43,8.43,0,0,0,0-.87q0-8.07,0-16.15C199,164,199,163.71,199,163.48Zm-30.77-9a14.45,14.45,0,0,1-5.86,8.53,21.69,21.69,0,0,1-12.49,4.15,19,19,0,0,1-9-1.71c-2.51-1.21-4.47-3-5.12-5.76-.75-3.22-.36-6.25,2.23-8.62a10.5,10.5,0,0,1,4.61-2.29,32,32,0,0,1,5.15-.74c4.15-.38,8.3-.79,12.46-1.16,2.53-.22,5.08-.41,7.62-.6.46,0,.63.13.64.58,0,1,0,2.09,0,3.13A19.32,19.32,0,0,1,168.19,154.46Z"/><path d="M485.22,141.32q0-20.49,0-41c0-2.21-.26-1.93,1.93-1.93h17.92c.46,0,.92,0,1.39,0a.45.45,0,0,1,.44.44c0,.46,0,.93,0,1.39,0,1.45,0,2.89,0,4.34a.35.35,0,0,0,.58.31,10,10,0,0,0,.8-.66,31.79,31.79,0,0,1,15.86-7.77,35.4,35.4,0,0,1,10.73-.32A37.3,37.3,0,0,1,542.87,98a30.68,30.68,0,0,1,9.79,5.48A32.08,32.08,0,0,1,564,123.7a35.37,35.37,0,0,1,.46,5.71v53.15c0,.35,0,.7,0,1a.52.52,0,0,1-.53.56c-.34,0-.69,0-1,0H544.31c-.34,0-.69,0-1,0a.5.5,0,0,1-.55-.53c0-.52,0-1,0-1.56q0-23.72,0-47.42a24.9,24.9,0,0,0-.78-6.88,16.43,16.43,0,0,0-6.64-9.45,17.18,17.18,0,0,0-7.59-2.79,19.78,19.78,0,0,0-8.27.55,16.13,16.13,0,0,0-11.65,11.75,25.36,25.36,0,0,0-.85,7q0,15.45,0,30.91,0,8.25,0,16.51c0,.46,0,.92,0,1.38a.43.43,0,0,1-.4.46,6.33,6.33,0,0,1-.87,0H486.52c-.23,0-.47,0-.7,0-.44,0-.6-.24-.6-.65s0-.93,0-1.39Z"/><path d="M16.77,138.51q0-10.93,0-21.89c0-.52,0-1-.06-1.56a.5.5,0,0,0-.33-.33,12.64,12.64,0,0,0-1.38,0h-13c-.46,0-.93,0-1.39,0a.51.51,0,0,1-.53-.55c0-.17,0-.35,0-.52V96.92c0-.17,0-.35,0-.52A.44.44,0,0,1,.45,96c.46,0,.93,0,1.39,0H14.89c.4,0,.81,0,1.21,0s.66-.16.66-.6,0-.93,0-1.39q0-10.52,0-21c0-2.2-.05-1.93,2-1.94H36.51c.35,0,.7,0,1.05,0,.64,0,.78.16.81.85,0,.46,0,.92,0,1.39V94.4c0,1.66,0,1.52,1.49,1.52H55.35c.47,0,.93,0,1.39,0a.54.54,0,0,1,.57.53c0,.34,0,.69,0,1v15.63c0,.29,0,.58,0,.87a.59.59,0,0,1-.62.67c-.46,0-.93,0-1.39,0H39a.51.51,0,0,0-.56.52c0,.4,0,.81,0,1.21v38.92a12.5,12.5,0,0,0,.18,2.59,6,6,0,0,0,4.68,4.62,12.42,12.42,0,0,0,3.44.41c3,0,5.91,0,8.87,0,.4,0,.81,0,1.21,0a.54.54,0,0,1,.56.54c0,.35,0,.7,0,1V180c0,.17,0,.34,0,.52,0,1.12-.05,1.16-1.2,1.16-5.68,0-11.36,0-17,0a26.44,26.44,0,0,1-9.67-1.91,18.89,18.89,0,0,1-11.84-13.36,26.12,26.12,0,0,1-.83-6.7Q16.77,149.1,16.77,138.51Z"/><path d="M66.73,138.81v-41c0-2.18-.27-1.9,2-1.9H86.27c.46,0,.92,0,1.39,0s.66.13.68.76,0,1.5,0,2.26c0,1.73,0,3.47,0,5.21a.33.33,0,0,0,.27.36.35.35,0,0,0,.29-.14,30.38,30.38,0,0,1,2.8-3.09,22.44,22.44,0,0,1,10.18-5.36,30.31,30.31,0,0,1,7.41-.78c1.57,0,3.14,0,4.7,0a.59.59,0,0,1,.64.65c0,.34,0,.69,0,1v16.5c0,.29,0,.58,0,.87,0,.65-.15.78-.86.79l-7.65,0a17.35,17.35,0,0,0-16.07,11.45,27.83,27.83,0,0,0-1.6,10.07v43.6c0,1.62,0,1.56-1.48,1.56q-9.39,0-18.78,0h-.35c-1.1,0-1.1,0-1.12-1.21V138.81Z"/><path class="cls-1" d="M437.2,177.86c1-.79,1.89-1.69,2.94-2.42a19.07,19.07,0,0,0,2.12-2c2-1.86,3.89-3.76,5.72-5.76,2.34-2.55,4.42-5.3,6.55-8a33.69,33.69,0,0,0,2.91-4.29c.17-.22.27-.59.68-.37a4.9,4.9,0,0,1-1.27,2.41q-2.76,3.76-5.63,7.43c-.78,1-1.68,1.89-2.52,2.84-1,1.11-2,2.25-3,3.32s-2.18,2-3.28,3-2.39,2.15-3.57,3.24a3.63,3.63,0,0,1-1.62,1c-.11-.08-.15-.16-.11-.24S437.16,177.86,437.2,177.86Z"/><path class="cls-2" d="M476.22,80.61c.11.2.31.39.32.59a14.86,14.86,0,0,0,.53,2.89,5.37,5.37,0,0,1,.15.67,82,82,0,0,1,.43,10c0,.87,0,1.74,0,2.6,0,2.32-.41,4.6-.58,6.89-.19,2.6-.84,5.12-1.21,7.68a9.41,9.41,0,0,1-.9,3.15.42.42,0,0,1-.3-.38c0-.36,0-.72,0-1.07a70.08,70.08,0,0,0,1.41-7.6c.2-.82.19-1.68.4-2.51.23-1.24-.06-2.52.27-3.76a5.26,5.26,0,0,1,.08-1.19,54.76,54.76,0,0,0,0-9.41,1.9,1.9,0,0,1-.1-.57c.2-1.52-.49-3-.36-4.46a4,4,0,0,0-.27-1,1.52,1.52,0,0,1-.07-.52,2.23,2.23,0,0,0-.09-.77A1.13,1.13,0,0,1,476.22,80.61Z"/><path class="cls-3" d="M407.44,194a9.12,9.12,0,0,1-3.12,1,6.8,6.8,0,0,0-1,.19,9.7,9.7,0,0,1-4,.81,24.41,24.41,0,0,1-6.21.33,20.12,20.12,0,0,1-5.3-.74,22.52,22.52,0,0,1-6.43-2.51,4.65,4.65,0,0,1-.53-.45.28.28,0,0,1,.21-.31.6.6,0,0,1,.56.21h0c.21.18.51.13.72.32h0a26.67,26.67,0,0,0,10.19,2.69,27.08,27.08,0,0,0,6.91-.38c2.63-.08,5-1.22,7.63-1.49A.58.58,0,0,1,407.44,194Z"/><path class="cls-4" d="M420.9,32.32c0-1,.26-1.93.39-2.89a48.49,48.49,0,0,0,.22-9.09c-.08-1.54-.22-3.09-.34-4.63a23.26,23.26,0,0,0-.68-4.06,12.3,12.3,0,0,1-.36-2.89.3.3,0,0,1,.17-.49c1,1.37.94,3.05,1.19,4.58a58.28,58.28,0,0,1,.63,16.73,7.65,7.65,0,0,1-.66,2.67A.45.45,0,0,1,420.9,32.32Z"/><path class="cls-5" d="M467.18,40.33a1.12,1.12,0,0,1,.39-.91,46.55,46.55,0,0,0,6.05-8.57c1.61-2.8,2.94-5.72,4.28-8.64a.3.3,0,0,1,.42,0,23.19,23.19,0,0,1-1.95,4.59,67.57,67.57,0,0,1-5.1,8.8c-1.07,1.5-2.18,3-3.39,4.36C467.66,40.13,467.56,40.52,467.18,40.33Z"/><path class="cls-6" d="M370.85,153.94a6,6,0,0,0,.29-1.69,31.46,31.46,0,0,0,0-4.95c-.16-1.24-.4-2.47-.63-3.71s-.47-2.47-.75-3.7-.67-2.66-1-4a5.23,5.23,0,0,1-.07-.68c.87-.17.87.54,1,1a22.34,22.34,0,0,1,.55,2.68,7.16,7.16,0,0,0,.35,1.38c.66,3.26,1.53,6.48,1.42,9.85a13.07,13.07,0,0,1-.62,3.84A.52.52,0,0,1,370.85,153.94Z"/><path class="cls-7" d="M369.42,175.13a8.64,8.64,0,0,1,.26,1,19.8,19.8,0,0,0,2.12,6,.71.71,0,0,1,.06,1,19.64,19.64,0,0,1-2.87-6.93,30.49,30.49,0,0,1-.75-4.75,23.09,23.09,0,0,1,0-5.32,16.2,16.2,0,0,0,.14-1.71.32.32,0,0,1,.49.14C368.9,168.07,368.63,171.63,369.42,175.13Z"/><path class="cls-8" d="M458.12,155l-.68.37a1.32,1.32,0,0,1,.07-.5c1.38-2.25,2.77-4.5,4.14-6.75.27-.44.51-.9.75-1.36,1.15-2.31,2.3-4.63,3.46-6.94.16-.3.24-.65.58-.83a.52.52,0,0,1,.05.73A118.53,118.53,0,0,1,458.12,155Z"/><path class="cls-9" d="M369.41,73c-.89,2.44-1.76,4.89-2.68,7.32a47.21,47.21,0,0,0-1.93,6.12,7.71,7.71,0,0,1-.4,1.14.63.63,0,0,1-.55.37,12.93,12.93,0,0,1,.69-3c1.09-3.77,2.66-7.36,3.92-11.06a4.56,4.56,0,0,1,.9-1.66A.51.51,0,0,1,369.41,73Z"/><path class="cls-10" d="M392,47.57a23,23,0,0,0-3.84,2.58,21,21,0,0,1-2,1.36.47.47,0,0,0-.38.3h0a1.14,1.14,0,0,0-.37.32h0a2.24,2.24,0,0,0-.34.35h0a1.88,1.88,0,0,0-.36.33h0a1.91,1.91,0,0,1-.38.31h0a.41.41,0,0,1-.67,0,8.28,8.28,0,0,1,2.52-2.3,10.51,10.51,0,0,0,1.37-1c.14-.11.26-.23.4-.33a60.41,60.41,0,0,1,9.81-5.78c.37-.15.77-.24,1.15-.36l.16.2c-.59.84-1.59,1-2.44,1.46C395.05,45.82,393.49,46.64,392,47.57Z"/><path class="cls-11" d="M415,190.81a22.93,22.93,0,0,0,3.63-1.5l2.17-1a.59.59,0,0,1,.74,0,11.89,11.89,0,0,1-3.15,1.71c-1.51.71-3.05,1.35-4.58,2a28.63,28.63,0,0,1-6.41,2l-.2-.2c.33-.77,1.12-.75,1.74-.95C411,192.2,413,191.47,415,190.81Z"/><path class="cls-12" d="M466.13,61.16a1.18,1.18,0,0,1-.77-.64,16.48,16.48,0,0,0-1.66-2A58.47,58.47,0,0,0,459.1,54l-2-1.85a.51.51,0,0,1,.7,0,50.48,50.48,0,0,1,8.33,8.39A.46.46,0,0,1,466.13,61.16Z"/><path class="cls-13" d="M467.18,40.33l.7-.34a1,1,0,0,1-.3.77,40.72,40.72,0,0,1-5.34,4.82c-1.08.74-2,1.75-3.31,2.1a.35.35,0,0,1-.49-.08c.83-.62,1.63-1.28,2.5-1.84A36.31,36.31,0,0,0,467.18,40.33Z"/><path class="cls-14" d="M478.32,22.24l-.42,0c.65-1.72,1.29-3.44,1.94-5.17l.06-.16c.81-2.57,1.33-2.33-.62-5.63a.28.28,0,0,1,.05-.45c1.75,1.16,2.07,2.8,1.6,4.7a9.79,9.79,0,0,1-.5,1.47C479.69,18.71,479.2,20.56,478.32,22.24Z"/><path class="cls-2" d="M474.92,115.11c-.53,2.24-1,4.48-1.62,6.7-.49,1.83-1,3.64-1.59,5.45-.15.48-.21,1-.74,1.3-.25-.25-.13-.56-.13-.85a7.92,7.92,0,0,0,.32-1,3.27,3.27,0,0,1,0-.44,1.65,1.65,0,0,0,.37-.79,2.37,2.37,0,0,0,.11-.46c.45-1.2.63-2.47,1.08-3.67h0c.46-1.57.69-3.2,1.19-4.76.17-.56.15-1.24.77-1.59Z"/><path class="cls-15" d="M420.52,37.52c-.36,1.58-1.53,2-2.95,2.09s-3.09.27-4.63.4a5.62,5.62,0,0,1-2,.09.28.28,0,0,1-.12-.46h0c.87-.52,1.89.13,2.76-.37h0a3.23,3.23,0,0,1,1.82-.12,12.58,12.58,0,0,1,2.67-.24,1.46,1.46,0,0,0,1.46-.66c.18-.21.12-.52.32-.72h0c.32-.28,0-.75.34-1h0a.3.3,0,0,1,.46,0C420.7,36.87,420.82,37.22,420.52,37.52Z"/><path class="cls-16" d="M437.2,177.86v.37a64.56,64.56,0,0,1-5.45,4.14,10.49,10.49,0,0,1-2.51,1.46.34.34,0,0,1-.42.06.32.32,0,0,1,.05-.41c.49-.3,1-.57,1.47-.89,1.09-.73,2.15-1.5,3.24-2.23a7.81,7.81,0,0,0,1.61-1.25A3.75,3.75,0,0,1,437.2,177.86Z"/><path class="cls-17" d="M383.65,53.16l.67,0c-.85.9-1.7,1.8-2.62,2.64a50.83,50.83,0,0,0-3.54,3.93,1.12,1.12,0,0,1-.68.47c-.21-.1-.24-.23-.07-.39a36.05,36.05,0,0,1,4.25-4.73A11.49,11.49,0,0,1,383.65,53.16Z"/><path class="cls-18" d="M466.49,139.71c0-.24,0-.49-.05-.73.95-2.3,1.9-4.59,2.86-6.89.26-.29-.06-.79.36-1v0c.11-.24.08-.53.27-.74h0c.13-.16.25-.15.37,0a1.6,1.6,0,0,1-.16,1c-1,2.57-1.9,5.22-3.15,7.71C466.87,139.3,466.78,139.58,466.49,139.71Z"/><path class="cls-19" d="M428.8,183.77l.45.06c-1.63,1.59-3.74,2.41-5.68,3.49-.65.37-1.33.68-2,1l-.74,0a.43.43,0,0,1,.07-.29c.75-.57,1.67-.86,2.46-1.36h0c1.16-.9,2.61-1.28,3.81-2.11h0a4.6,4.6,0,0,1,1.08-.66h0A.38.38,0,0,1,428.8,183.77Z"/><path class="cls-20" d="M377.41,59.78c0,.13,0,.26.07.39a44.29,44.29,0,0,0-4,5.68c-.26.43-.42,1-.91,1.2a.47.47,0,0,1,0-.68,45.54,45.54,0,0,1,4-5.86A1.52,1.52,0,0,1,377.41,59.78Z"/><path class="cls-21" d="M371.86,183.09l-.06-1c1.21,1.89,2.48,3.73,3.88,5.5a1.17,1.17,0,0,0,.35.35h0a.74.74,0,0,0,.36.34h0a.27.27,0,0,1-.07.44,1.42,1.42,0,0,1-1-.65C374.13,186.49,372.66,185,371.86,183.09Z"/><path class="cls-22" d="M475.49,79.93a28.12,28.12,0,0,1-1.08-3.6c-.21-.65-.44-1.3-.66-2a1,1,0,0,1-.15-.67.55.55,0,0,1,.18-.41,14.28,14.28,0,0,1,1.77,4.94c.09.56.22,1.11.34,1.66l-.1.15A.26.26,0,0,1,475.49,79.93Z"/><path class="cls-23" d="M372.53,66.37v.68c-1,1.91-1.91,3.81-2.88,5.71,0,.09-.16.16-.24.23,0-.25,0-.51-.05-.77a1.47,1.47,0,0,1,.08-.28.94.94,0,0,0,.25-.43A25.27,25.27,0,0,1,372.53,66.37Z"/><path class="cls-24" d="M457.78,52.09l-.7,0h0a2.13,2.13,0,0,0-.4-.33c-.51-.38-1-.75-1.52-1.14a5,5,0,0,1-.65-.57.68.68,0,0,1,.13-1,3.62,3.62,0,0,1,2.08-.73c.12.08.16.16.13.24s-.07.14-.11.14l-.31.14c-.44.26-1.18.21-1.28.75s.7.8,1.1,1.16Z"/><path class="cls-25" d="M370.85,153.94l.36,0c-.08,2.24-1.14,4.22-1.62,6.35a.39.39,0,0,1-.37.33l-.23-.14a36.72,36.72,0,0,1,1.64-5.91C370.7,154.37,370.78,154.16,370.85,153.94Z"/><path class="cls-26" d="M370.09,139c-.22-.93-.42-1.86-.66-2.78-.12-.41-.16-.92-.74-1-.26-.34-.8-.3-1-.73a2.13,2.13,0,0,1,2.36,1.8,7.11,7.11,0,0,1,.4,2.71C370.33,139.16,370.21,139.15,370.09,139Z"/><path class="cls-10" d="M398.9,43.35a12,12,0,0,1,4.31-1.7c.56-.1,1.12-.26,1.68-.39l.11.19c0,.52-.58.34-.82.57h0c-1.72.46-3.27,1.48-5.1,1.54Z"/><path class="cls-27" d="M410.82,39.64a1.55,1.55,0,0,1,0,.31,17.21,17.21,0,0,1-5.89,1.53,1.62,1.62,0,0,0,0-.22,5.26,5.26,0,0,1,2.29-1C408.4,40.06,409.61,39.85,410.82,39.64Z"/><path class="cls-28" d="M473.78,73.3l-.08.46-.17,0-.1-.13a1.57,1.57,0,0,1-.08-.29c0-.17-.16-.28-.2-.43l-1.89-4.09a.3.3,0,0,1,.12-.46c.12.11.3.2.37.34A45.22,45.22,0,0,1,473.78,73.3Z"/><path class="cls-29" d="M380.79,192.64c-1-.11-1.52-.93-2.28-1.39a11.14,11.14,0,0,1-1.68-1.4c-.1-.1-.08-.31-.12-.47.85-.1,1.3.47,1.74,1h0c.83.67,2,1,2.48,2Z"/><path class="cls-30" d="M466.13,61.16c0-.23,0-.46,0-.68a4.13,4.13,0,0,1,1.76,1.82c.31.49.53,1,.79,1.54l-.08.2a.35.35,0,0,1-.39-.07A11.9,11.9,0,0,0,466.13,61.16Z"/><path class="cls-30" d="M468.66,63.84a11.63,11.63,0,0,1,2.61,3.79,1.35,1.35,0,0,1,.05.5c-.4.18-.5-.16-.66-.39h0c-.68-1-1.34-2.12-2.09-3.13h0a.46.46,0,0,1-.09-.61Z"/><path class="cls-31" d="M297,114a9.73,9.73,0,0,1,5.63-1.06c-.15.08-.29.22-.44.23a23,23,0,0,0-4.35.8A3.89,3.89,0,0,1,297,114Z"/><path class="cls-32" d="M420.52,36.47a1.83,1.83,0,0,1-.33,0c.24-1.39.47-2.78.71-4.17h.35A5.65,5.65,0,0,1,420.52,36.47Z"/><path class="cls-33" d="M378.45,190.42c-.68-.17-1-.91-1.74-1l-.38-.62c0-.15,0-.3.07-.44l1.6,1.24A1,1,0,0,1,378.45,190.42Z"/><path class="cls-34" d="M470.31,130.33l-.37,0,.05-.71a.86.86,0,0,0,.26-.45l.09-.59a.78.78,0,0,0,.25-.47l.07-.55.18-.13.18.15,0,1Z"/><path class="cls-35" d="M456.74,48.68l0-.38a6.16,6.16,0,0,1,1.72-.7l.49.07A3.63,3.63,0,0,1,456.74,48.68Z"/><path class="cls-27" d="M413.58,39.27c-.85.63-1.82.37-2.76.37a.94.94,0,0,1,.89-.38Z"/><path class="cls-36" d="M350.23,100.36a2.21,2.21,0,0,1-1.06,1.78A2.1,2.1,0,0,1,350.23,100.36Z"/><path class="cls-25" d="M368.7,164.37h-.33c0-.73-.2-1.48.31-2.13.52.46.34,1.06.32,1.63A.82.82,0,0,1,368.7,164.37Z"/><path class="cls-7" d="M368.73,164.05c0-.6,0-1.2-.05-1.8,0-.1,0-.21,0-.32a.33.33,0,0,1,.49.12C369.06,162.72,369.66,163.56,368.73,164.05Z"/><path class="cls-22" d="M476.22,80.61,476.17,82a.2.2,0,0,1-.35,0h0a3.76,3.76,0,0,1,0-2.05l.1-.09Z"/><path class="cls-27" d="M415.4,39.15a4,4,0,0,1-1.82.12A1.46,1.46,0,0,1,415.4,39.15Z"/><path class="cls-37" d="M262.64,121.6a1.21,1.21,0,0,1,.65,1.43A1.87,1.87,0,0,1,262.64,121.6Z"/><path class="cls-25" d="M369,161.93h-.34a1.86,1.86,0,0,1,.29-1.43l.11.08a1.09,1.09,0,0,1,.23.95A1,1,0,0,1,369,161.93Z"/><path class="cls-38" d="M470.66,67.74l.66.39a.6.6,0,0,1,.06.27l-.12.46A1.13,1.13,0,0,1,470.66,67.74Z"/><path class="cls-32" d="M420.19,36.49a1,1,0,0,1-.34,1A.92.92,0,0,1,420.19,36.49Z"/><path class="cls-32" d="M419.85,37.53a.61.61,0,0,1-.32.72A.61.61,0,0,1,419.85,37.53Z"/><path class="cls-9" d="M369.69,71.51a.47.47,0,0,1-.25.43C369.52,71.79,369.61,71.65,369.69,71.51Z"/><path class="cls-39" d="M420.52,36.47a14.31,14.31,0,0,0,.73-4.15,11.61,11.61,0,0,0,.64-3,58.91,58.91,0,0,0-.1-12.24c-.3-2.64-.81-5.23-1.19-7.85a1.86,1.86,0,0,0-.34-1,30.88,30.88,0,0,0-1.5-5.76c0-.35,0-.71,0-1.07a2,2,0,0,1,.33.39,10.28,10.28,0,0,1,.34,1,39.35,39.35,0,0,1,1.3,4.82c.4,2.26.84,4.51,1.25,6.77a64.17,64.17,0,0,1,.59,13.28,33.41,33.41,0,0,1-.71,4.94c-.28,1.47-.67,2.92-1,4.38a.85.85,0,0,1-.36.56Z"/><path class="cls-40" d="M379.49,137.64a17.34,17.34,0,0,0,4.11.58,54,54,0,0,0,5.55.09c1.08-.05,2.18,0,3.28,0a49,49,0,0,0,5-.5c1.37-.19,2.75-.3,4.12-.56a13.67,13.67,0,0,0,3-.77c.61-.28,1.26-.13,1.86-.34,1.64-.57,3.37-.88,5-1.48a57.47,57.47,0,0,0,6.42-2.6c.86-.46,1.77-.84,2.66-1.24a62.62,62.62,0,0,0,6.06-3.35c.7-.42.74-.72.16-1.36-.74-.81-1.52-1.58-2.29-2.37a1.2,1.2,0,0,1-.34-.37h0c-.69-.37-1.21,0-1.74.37-1,.66-2.16,1.1-3.2,1.73s-2.3,1.08-3.46,1.58a63,63,0,0,1-11.79,4c-1.81.39-3.59.93-5.41,1.23a53.2,53.2,0,0,1-5.35.51,60.43,60.43,0,0,1-8.51-.05,43.57,43.57,0,0,1-6.33-1,2.72,2.72,0,0,1-1.54-.74,132.33,132.33,0,0,1-5.19-23.18,58.57,58.57,0,0,1,1.42-20,7.87,7.87,0,0,1,.36-1c1.52-2.73,2.1-5.82,3.29-8.69.82-2,1.77-3.88,2.59-5.86a52.19,52.19,0,0,1,5-7.38,64.57,64.57,0,0,1,7.53-7.17,26.45,26.45,0,0,0,2.77-2,45.36,45.36,0,0,1,18.36-7.41c3.26,0,6.48-.61,9.78-.52a49.33,49.33,0,0,1,22,6A46.68,46.68,0,0,1,457,63.42c1.41,1.52,2.62,3.22,4,4.79,1.48,1.37,2.08,3.28,3.06,5a17.59,17.59,0,0,0,1,1.78,39.64,39.64,0,0,1,3.48,13.8A77.25,77.25,0,0,1,466.47,113c-.32,1.41-.85,2.76-1.2,4.15A113.17,113.17,0,0,1,459,135.73c-1.19,2.62-2.53,5.17-3.86,7.73-.91,1.36-1.59,2.85-2.43,4.25a100.28,100.28,0,0,1-8.88,12.3,7.91,7.91,0,0,0-1.64,1.58,2.32,2.32,0,0,1-.2.38,2.69,2.69,0,0,1-.27.32,1.85,1.85,0,0,1-.14.14,4,4,0,0,1-.29.29l-.14.15-.29.3-.15.16a2.35,2.35,0,0,1-.33.3l-.19.13a91.41,91.41,0,0,1-14.43,12.06,2.17,2.17,0,0,1-.37.31,26.36,26.36,0,0,0-3.75,2.42,34.72,34.72,0,0,1-5.95,2.88,19.66,19.66,0,0,0-2.53,1.12,2,2,0,0,1-.42.2,12.27,12.27,0,0,0-2.17.94,2.48,2.48,0,0,1-.48.17c-3.46,1-6.87,2.28-10.42,3-5.74.94-11.25.61-16-3.14a16.11,16.11,0,0,1-4.62-5.94c-.27-.57-.53-1.14-.85-1.69a25.56,25.56,0,0,1-.61-13.44,36.71,36.71,0,0,1,1.46-5.14,24.2,24.2,0,0,0,1-11.05,66.79,66.79,0,0,0-1.34-7.45C378.44,138.3,378.44,137.64,379.49,137.64Z"/><path class="cls-41" d="M366,126.12c-.55.46-.93-.1-1.35-.33.41-.11.79.47,1.13.17s.12-.85,0-1.28-.28-.86-.47-1.29a3.5,3.5,0,0,1-.35-1.66,4.12,4.12,0,0,0-.33-1.84.71.71,0,0,1-.07-.16c-.34-1.63-.68-3.25-1-4.88a45.68,45.68,0,0,1-.64-4.78,54.34,54.34,0,0,1-.46-5.68c0-2.5,0-5,.08-7.47.06-1.43.34-2.84.52-4.28.08-.55.36-1.12-.21-1.61a.94.94,0,0,1,.54.26h0c.35.35.16.91.09,1.37a57.89,57.89,0,0,0-.43,13.6,63.67,63.67,0,0,0,1.14,9.21c.11.5.24,1,.38,1.51a4.1,4.1,0,0,1,.14.93s0,0,0,0a4.77,4.77,0,0,0,.21,1.41,1.22,1.22,0,0,0,.07.17c.08.29.15.56.21.85s.12.61.18.92a14.33,14.33,0,0,0,.87,3.54A1.07,1.07,0,0,1,366,126.12Z"/><path class="cls-42" d="M456.07,39.3a16.71,16.71,0,0,1-4.89,2.57c-.54.19-1.08.41-1.62.62a1.83,1.83,0,0,1-.65.21c-1.68,0-3.31.55-5,.39a29.25,29.25,0,0,1-8.56-2,54.86,54.86,0,0,1-5.59-2.78,1.44,1.44,0,0,1-.87-1.53,5,5,0,0,1,.05-.87c.7-2.38.84-4.88,1.76-7.22a32.32,32.32,0,0,1,4.4-7.81c.44-.57,1.09-.88,1.48-1.42a4.82,4.82,0,0,1,1.86-1.5.8.8,0,0,0,.28-.2c1.3-1.42,3.18-1.82,4.81-2.65a2.87,2.87,0,0,1,1.36-.18l.13.21a.74.74,0,0,1-.27.38,7.36,7.36,0,0,0-1.7.92,31.52,31.52,0,0,0-5.8,3.74c-4.61,4.35-6.42,9.88-7.12,15.93a1.63,1.63,0,0,0,1,1.69c7.24,4.08,14.65,6,22.56,1.8a3.29,3.29,0,0,1,2-.6A.78.78,0,0,1,456.07,39.3Z"/><path class="cls-43" d="M460.89,68.46a2.73,2.73,0,0,1-.52-.42,36.09,36.09,0,0,0-4.21-5c-.49-.47-.89-1-1.4-1.53a51.15,51.15,0,0,0-5.91-4.77,56.81,56.81,0,0,0-7.22-4.06,70.77,70.77,0,0,0-8.26-3.08,34.41,34.41,0,0,0-4.91-1c-1.65-.29-3.34-.1-5-.52-1.81.22-3.61-.15-5.45.12a19.39,19.39,0,0,1-5.16.46c-.1-.9.85-.24,1-.7,1.67,0,3.3-.41,5-.43a25.3,25.3,0,0,1,3.59,0,6.15,6.15,0,0,0,.86,0,35.91,35.91,0,0,1,6.53.68,52.78,52.78,0,0,1,13.73,4.67,49.65,49.65,0,0,1,8.67,5.69,41.29,41.29,0,0,1,6,5.94c.89,1.06,1.78,2.12,2.6,3.23A.48.48,0,0,1,460.89,68.46Z"/><path class="cls-44" d="M465.06,117.42a4.42,4.42,0,0,1,.32-1.69,68.45,68.45,0,0,0,2.56-12.53,67.9,67.9,0,0,0,.5-12.26c-.12-1.77-.23-3.55-.52-5.32a46.37,46.37,0,0,0-1.81-7.55c-.4-1.14-.92-2.24-1.39-3.35a.51.51,0,0,1,0-.75,7.59,7.59,0,0,1,1.72,3.53,1.85,1.85,0,0,0,.18.67c1.23,1.91,1.25,4.18,1.79,6.28a30.44,30.44,0,0,1,.45,4.28,23.91,23.91,0,0,1,.21,3.57c-.06,1.82.49,3.66-.14,5.47a2.58,2.58,0,0,0-.05.69,55.35,55.35,0,0,1-1,9.07,64.55,64.55,0,0,1-2.2,9.23c-.2.59-.14,1.28-.61,1.78A1,1,0,0,1,465.06,117.42Z"/><path class="cls-45" d="M379.49,137.64a1,1,0,0,0-.66,1.09,2,2,0,0,0,.05.34,43.35,43.35,0,0,1,1.08,5.06,14.51,14.51,0,0,1,.43,3.59c0,.75.14,1.48.11,2.23a23.34,23.34,0,0,1-1.24,7.64,39,39,0,0,0-2.08,9.25,8.14,8.14,0,0,0,0,.86,49.12,49.12,0,0,0,.73,6.85,9.82,9.82,0,0,0,.56,1.63.81.81,0,0,1,0,1,7.13,7.13,0,0,1-1.4-3.64c-.57-2.63-.33-5.29-.36-7.95a10.87,10.87,0,0,1,.38-2.21,25.2,25.2,0,0,1,1.57-5.82,15.43,15.43,0,0,0,.88-3.51,20.84,20.84,0,0,0,.29-4.31c0-1.77-.27-3.53-.37-5.29a4,4,0,0,0-.28-1,5.52,5.52,0,0,1-.38-2.2,5.38,5.38,0,0,0-.43-2,2.53,2.53,0,0,1-.24-1.18.88.88,0,0,1,.64-.74A.61.61,0,0,1,379.49,137.64Z"/><path class="cls-46" d="M444.92,15.32l0-.38a8.66,8.66,0,0,1,3.18-.75c1.37,0,2.73-.37,4.11-.45a9.29,9.29,0,0,1,3.2,0,9.91,9.91,0,0,0,1.54,0c2.73.4,5.5.5,8.19,1.16,1.85.45,3.69,1,5.52,1.46a.86.86,0,0,1,.56,1.24,75.71,75.71,0,0,1-4.3,9.06c-1.28,2.12-2.62,4.19-4.05,6.22a3.72,3.72,0,0,1-.49.48.34.34,0,0,1-.45-.16c.05-1.12.84-1.87,1.43-2.71A62.75,62.75,0,0,0,469.59,19c.45-1,.41-1.71-.88-2a55.69,55.69,0,0,0-18-2.1c-1.39.1-2.73.51-4.11.64C446,15.52,445.44,15.76,444.92,15.32Z"/><path class="cls-47" d="M373.26,87.58a12.67,12.67,0,0,1-.54,3.06,38.73,38.73,0,0,0-1,8.24c0,.92-.2,1.84-.17,2.76a46.92,46.92,0,0,0,.47,6.69c.18,1.08.24,2.18.37,3.27.28,2.18.81,4.31,1.18,6.46s1.12,4.24,1.53,6.4c.33,1.74,1,3.43,1.41,5.18a3.7,3.7,0,0,1,.18,1.36.91.91,0,0,1-.52-.64,15.73,15.73,0,0,1-.9-3.15,7.26,7.26,0,0,0-.41-1.5,12,12,0,0,1-1-4.17.47.47,0,0,0,0-.17c-.58-1.51-.69-3.15-1.2-4.67a9.07,9.07,0,0,1-.5-3c-.27-.3,0-.77-.31-1.06,0-.12,0-.23,0-.34-.43-.77.11-1.67-.33-2.44,0-.11,0-.23,0-.34-.44-.89.13-1.9-.34-2.79h0c-.28-.46.51-.92,0-1.39,0-.11,0-.22,0-.33a21.35,21.35,0,0,1,0-5.59V98.7a.9.9,0,0,1,0-1h0c.46-.77-.07-1.67.32-2.46l.05-1c.34-.42,0-1,.29-1.42l.05-.67c.36-.41,0-1,.31-1.41l0-.33c.42-.52-.06-1.22.34-1.74h0c.33-.28.05-.75.35-1h0C373,87.38,373.14,87.39,373.26,87.58Z"/><path class="cls-48" d="M362.8,90.7c.11-.12.2-.3.34-.37.77-.41,1.15-.22,1.07.59a23.54,23.54,0,0,1-.46,3.25,31.53,31.53,0,0,0-.34,4.65,5.72,5.72,0,0,1-.11,1.36.76.76,0,0,0-.06.5c.5.95-.16,1.95.18,2.89-.26,2.2.31,4.34.46,6.51.12,1.83.44,3.66.74,5.47.12.74.42,1.44.59,2.18.26,1.17.48,2.36.72,3.55a.57.57,0,0,1-.53.12c-.56-.48-.28-1.29-.72-1.82a89.89,89.89,0,0,1-2.07-19.83c.08-2.3.3-4.58.6-6.87C363.31,92.13,363.73,91.28,362.8,90.7Z"/><path class="cls-49" d="M378.46,177.21c0-.34,0-.68,0-1a3,3,0,0,1,.95,1.61,15.36,15.36,0,0,0,3.42,4.94,13.53,13.53,0,0,0,6.24,3.52,22.69,22.69,0,0,0,8,.63c.86-.07,1.69-.25,2.54-.3a1.2,1.2,0,0,1,1.09,0c-.17,1.22-1.3.18-1.76.74h0c-1,.49-2.12-.13-3.11.37a21.26,21.26,0,0,1-6.5-.68,15.9,15.9,0,0,1-7.25-4.16,23.38,23.38,0,0,1-2.25-2.82,13.71,13.71,0,0,1-1.39-2.79Z"/><path class="cls-50" d="M369,161.93a.69.69,0,0,0,0-.32c.3-.31,0-.76.28-1.08l1.86-6.57a10.26,10.26,0,0,0,.56-4.39,26,26,0,0,0-.88-6.61,24.94,24.94,0,0,1-.5-2.87l.18-.16.2.13a52.69,52.69,0,0,1,1.15,5.75,37.85,37.85,0,0,1,.28,5,15.64,15.64,0,0,1-1,5.07,38.4,38.4,0,0,0-1.89,8.06,44,44,0,0,0-.25,6.39,12.15,12.15,0,0,0,.25,2.4,13.73,13.73,0,0,1,.1,2.41c-.1-.14-.26-.27-.28-.42-.18-1.32-.35-2.63-.49-4-.22-2.13.08-4.26.05-6.39a.59.59,0,0,0,0-.32A3.69,3.69,0,0,0,369,161.93Z"/><path class="cls-51" d="M364.92,119.88l-.06.05a.2.2,0,0,1-.31,0,.71.71,0,0,1-.07-.16c-.34-1.63-.68-3.25-1-4.88a45.68,45.68,0,0,1-.64-4.78,54.34,54.34,0,0,1-.46-5.68c0-2.5,0-5,.08-7.47.06-1.43.34-2.84.52-4.28.08-.55.36-1.12-.21-1.61a.39.39,0,0,1,0-.33c.94,0,.95,0,.82.76a60.7,60.7,0,0,0-.78,8.3,79,79,0,0,0,.28,8.13c.22,2.54.64,5.06,1,7.59,0,0,0,.1,0,.14.11.77.34,1.53.5,2.3,0,0,0,0,0,0a1.6,1.6,0,0,1,.05.21,11.93,11.93,0,0,1,.16,1.2Z"/><path class="cls-52" d="M413.92,48c-.2.44-.83.25-1,.7-.28.07-.55.15-.84.2a18.11,18.11,0,0,0-2.89.53c-3.29,1.11-6.67,2-9.72,3.71-1.26.71-2.5,1.45-3.75,2.18-.39.24-.79.47-1.19.7-.18.15-.33.13-.45-.07a12.66,12.66,0,0,1,3.78-2.67,75.33,75.33,0,0,1,7.56-3.41,13.22,13.22,0,0,1,1.66-.49c.83-.23,1.69-.38,2.49-.68A10.5,10.5,0,0,1,413.92,48Z"/><path class="cls-53" d="M425.41,175.84c.12-.36.43-.52.73-.71a69.89,69.89,0,0,0,5.86-4.3,90.65,90.65,0,0,0,7.95-7.22,2,2,0,0,1,.45-.26.47.47,0,0,1,0,.67,36.3,36.3,0,0,0-3.09,3c-1.46,1.29-2.87,2.63-4.46,3.79-.78.57-1.46,1.27-2.22,1.88a52,52,0,0,1-4.5,3.16A.48.48,0,0,1,425.41,175.84Z"/><path class="cls-54" d="M465.06,117.42c0,.37,0,.74,0,1.12a9.47,9.47,0,0,1-.6,2.84c-.83,2.63-1.74,5.23-2.64,7.83-.63,1.84-1.5,3.59-2.13,5.43a4.69,4.69,0,0,1-.87,1.67.33.33,0,0,1-.08-.52c.62-1.6,1.23-3.21,1.85-4.81a87.79,87.79,0,0,0,4-12.46A1.81,1.81,0,0,1,465.06,117.42Z"/><path class="cls-55" d="M415,190.81a14.3,14.3,0,0,1-4.26,1.75,14.92,14.92,0,0,0-3.54,1.25c-1.8.43-3.6.85-5.4,1.3a12.16,12.16,0,0,1-2.41.24.34.34,0,0,1-.52-.12,6.81,6.81,0,0,1,2.47-.62,3.11,3.11,0,0,0,1-.09c2.34-1,4.9-1.17,7.24-2.13,1.27-.52,2.59-.93,3.88-1.4A2.49,2.49,0,0,1,415,190.81Z"/><path class="cls-33" d="M398.9,195.23l.52.12a2.31,2.31,0,0,1-.63.27,30.41,30.41,0,0,1-10.29-.37,28.15,28.15,0,0,1-5.45-1.75c-.31-.15-.64-.28-.77-.64a2.92,2.92,0,0,1,1.48.42,28.92,28.92,0,0,0,6.94,1.9,21.4,21.4,0,0,0,5.82.06C397.33,195.15,398.11,195.25,398.9,195.23Z"/><path class="cls-56" d="M443.52,159.86a48.54,48.54,0,0,0,4.78-6.09c1.37-2.05,2.8-4.07,4.2-6.1a.27.27,0,0,1,.41,0,9.08,9.08,0,0,1-1.56,2.65c-1.05,1.64-2.19,3.23-3.33,4.81-.77,1.07-1.57,2.12-2.43,3.11a9.22,9.22,0,0,1-2,2.31l-.17-.14A.5.5,0,0,1,443.52,159.86Z"/><path class="cls-57" d="M379.49,72.28a5.35,5.35,0,0,1-.86,2,50.32,50.32,0,0,0-3.09,7.48c-.18.58.08,1.15-.15,1.64s-.69.75-.91,1.24c-.32.72-.32,1.58-.91,2.19a.87.87,0,0,1,0-1,1.67,1.67,0,0,0,.05-.31c.28-.3,0-.79.35-1.06a3.19,3.19,0,0,0,.52-.88,54.7,54.7,0,0,1,3.29-8.85c.19-.2.13-.52.34-.71h0c.2-.18.13-.51.35-.69h0c.2-.18.12-.52.37-.67h0C379,72.41,379.08,72.08,379.49,72.28Z"/><path class="cls-58" d="M415.49,181.24a38.57,38.57,0,0,0,6.09-3c.65-.29,1.16-.92,2-.81l.17.18a2.36,2.36,0,0,1-1.1.81c-2.58,1.29-5.14,2.64-7.76,3.86a39.65,39.65,0,0,1-5.45,2.22.37.37,0,0,1-.1-.4c.28-.4.77-.41,1.17-.61h0c.79-.38,1.6-.72,2.42-1h0C413.79,182.11,414.63,181.64,415.49,181.24Z"/><path class="cls-59" d="M394,55.9l.45.07c-.07.09-.11.22-.2.27-2.44,1.47-4.4,3.51-6.56,5.32A9.9,9.9,0,0,0,386,63.45a6.21,6.21,0,0,1-1.6,1.55.43.43,0,0,1,0-.68c.95-.62,1.37-1.69,2.21-2.43,1.38-1.22,2.69-2.52,4.18-3.62.88-.65,1.53-1.6,2.61-2l.38-.31Z"/><path class="cls-60" d="M399.07,43.56c.81-.29,1.62-.58,2.44-.85a7.22,7.22,0,0,1,2.66-.69c-.34.57-.94.63-1.48.79a41.3,41.3,0,0,0-7.78,3.37c-.51.27-1,.58-1.49.86a2.36,2.36,0,0,1-1.44.53,9.57,9.57,0,0,1,2.66-1.79Z"/><path class="cls-61" d="M384.38,64.32V65a4.64,4.64,0,0,1-.86,1.28,39,39,0,0,0-4,6l-.65.38a1.58,1.58,0,0,1,.35-1.13A57.52,57.52,0,0,1,384.38,64.32Z"/><path class="cls-2" d="M366.29,127.16a4.6,4.6,0,0,1-1.69-1.37c.41-.11.79.47,1.13.17s.12-.85,0-1.28-.28-.86-.47-1.29a3.5,3.5,0,0,1-.35-1.66,4.12,4.12,0,0,0-.33-1.84h.37c.07.16.14.33.22.5s.26.61.4.91a.79.79,0,0,1,0,.13h0c.47,1.59.77,3.2,1.26,4.79C367,126.61,367,127.17,366.29,127.16Z"/><path class="cls-62" d="M476.24,106.08a14.43,14.43,0,0,1-.44,3.21c-.27,1.58-.66,3.13-1,4.69-.12.16-.23.16-.34,0a3.51,3.51,0,0,1,0-.86c.67-2.09.7-4.31,1.26-6.42a6.91,6.91,0,0,0,.1-1.37,1.8,1.8,0,0,1,.3-1.15A2.41,2.41,0,0,1,476.24,106.08Z"/><path class="cls-54" d="M458.78,135.79c0,.17.05.35.08.52a3.65,3.65,0,0,1-.56,1.6l-3,5.61a.24.24,0,0,1-.4,0c.85-1.76,1.67-3.53,2.55-5.28A10.34,10.34,0,0,1,458.78,135.79Z"/><path class="cls-63" d="M456.07,39.3l-.44,0a.81.81,0,0,1,.4-.87c1.57-1.2,3-2.63,4.58-3.78a1,1,0,0,1,.48,0l.19.17c-.91,1.48-2.38,2.44-3.56,3.66A2.94,2.94,0,0,1,456.07,39.3Z"/><path class="cls-60" d="M404.9,41.48c1.9-.74,4-.91,5.89-1.53l2.15.06a1.35,1.35,0,0,1-1.11.35,5.18,5.18,0,0,0-2,.34,10.46,10.46,0,0,1-3,.72,5.39,5.39,0,0,0-1.48.42,2,2,0,0,1-1.16.18Z"/><path class="cls-64" d="M464.76,74c0,.25,0,.5,0,.75a7.54,7.54,0,0,1-1.26-2.22,21.59,21.59,0,0,0-2.57-4c0-.23,0-.47,0-.71a3.78,3.78,0,0,1,1.58,1.77c.53,1,1,2,1.56,3.08a3.93,3.93,0,0,0,.31.38,1.57,1.57,0,0,1,0,.3,1.35,1.35,0,0,0,.31.4C464.73,73.77,464.74,73.87,464.76,74Z"/><path class="cls-65" d="M366.29,127.16a.68.68,0,0,0,.35-.72c-.1-.49-.24-1-.38-1.48a10.94,10.94,0,0,1-.72-3.67h.39a2.4,2.4,0,0,1,.29.81,11.9,11.9,0,0,0,.93,4,3.06,3.06,0,0,1,.15.49c0,.27.32.6,0,.8A.67.67,0,0,1,366.29,127.16Z"/><path class="cls-66" d="M476.94,88.89a7.86,7.86,0,0,1,.25,3c.1,2,0,4,0,6a3.63,3.63,0,0,1-.2.82,4.4,4.4,0,0,1-.1-2.59v-.9a1.54,1.54,0,0,1,0-1.19v-.54a2.56,2.56,0,0,1,0-1.55.31.31,0,0,1,0-.19A5.82,5.82,0,0,1,476.94,88.89Z"/><path class="cls-67" d="M409.41,184.18v.34a42.94,42.94,0,0,1-6.92,2.14l-.13-.23a.41.41,0,0,1,.33-.36C404.91,185.34,407,184.3,409.41,184.18Z"/><path class="cls-34" d="M474.47,114h.34l-.09,1a40,40,0,0,0-1.37,4.78c-.15.54-.08,1.17-.59,1.57a8.26,8.26,0,0,1,.52-3.19C473.59,116.72,474.06,115.36,474.47,114Z"/><path class="cls-68" d="M419.11,125.42c0-.06,0-.12.08-.15a22.7,22.7,0,0,1,3.83-2.19.69.69,0,0,1,1,.24,3.44,3.44,0,0,0-1.27.41c-.93.55-1.91,1-2.86,1.51A1.21,1.21,0,0,1,419.11,125.42Z"/><path class="cls-69" d="M454.93,143.5l.4,0-2.11,3.82-.31.36h0l-.41,0A21.73,21.73,0,0,1,454.93,143.5Z"/><path class="cls-66" d="M476.51,83.78c.12.94.27,1.88.35,2.83.06.66,0,1.33,0,2-.11.16-.23.16-.34,0,0-1.61-.55-3.17-.44-4.79l.18-.17Z"/><path class="cls-70" d="M427.17,184.54c-.11.13-.18.31-.32.39a15.31,15.31,0,0,1-3.49,1.72c.08-.15.12-.36.25-.44A11.39,11.39,0,0,1,427.17,184.54Z"/><path class="cls-71" d="M371.12,99.37c0,1.86,0,3.73,0,5.59-.11-.2-.3-.39-.3-.58,0-1.48,0-2.95,0-4.42C370.83,99.76,371,99.57,371.12,99.37Z"/><path class="cls-33" d="M380.94,192.44a15.53,15.53,0,0,1-2.48-2,5.16,5.16,0,0,1,3.1,2.12Z"/><path class="cls-38" d="M468.57,64.62a7.13,7.13,0,0,1,2.09,3.13A6.81,6.81,0,0,1,468.57,64.62Z"/><path class="cls-34" d="M472.76,121.3a12.42,12.42,0,0,1-1.08,4.15,1,1,0,0,1,0-1.08c.22-.81.44-1.61.65-2.41A.87.87,0,0,1,472.76,121.3Z"/><path class="cls-67" d="M399,187.29a1,1,0,0,1,.88-.35,1.12,1.12,0,0,0,.91-.31.85.85,0,0,1,.66-.34,1.27,1.27,0,0,1,1,.26l.1.11a2.55,2.55,0,0,1-1.85.65C400.08,187.29,399.52,187.29,399,187.29Z"/><path class="cls-56" d="M440.38,164c0-.22,0-.44,0-.67h0a1.83,1.83,0,0,1,.33-.35h0a2.89,2.89,0,0,1,.35-.35h0a1.88,1.88,0,0,1,.35-.34h0c.1-.12.23-.23.33-.36h0c.16-.19.3-.39.57-.43l.2.14A5.72,5.72,0,0,1,440.38,164Z"/><path class="cls-45" d="M378.46,177.21a8.3,8.3,0,0,1,1.39,2.79A3.41,3.41,0,0,1,378.46,177.21Z"/><path class="cls-58" d="M425.41,175.84h.7a4.75,4.75,0,0,1-2.39,1.79l-.1-.12c.11-1.08,1.21-1.1,1.79-1.67Z"/><path class="cls-66" d="M476.91,99.74a13.94,13.94,0,0,1-.31,3.86l-.19-.21a3.54,3.54,0,0,1,0-.56,10.85,10.85,0,0,1,.14-2.79,1.08,1.08,0,0,1,0-.31C476.67,99.58,476.79,99.57,476.91,99.74Z"/><path class="cls-70" d="M423.36,186.65A4.85,4.85,0,0,1,420.9,188,3.33,3.33,0,0,1,423.36,186.65Z"/><path class="cls-72" d="M476.91,99.74h-.36c0-.86,0-1.71,0-2.57a1.46,1.46,0,0,1,.28-1c0,.86.07,1.72.1,2.59C476.93,99.1,476.92,99.42,476.91,99.74Z"/><path class="cls-67" d="M395.85,187.66a1.08,1.08,0,0,1,.91-.35l2.2,0a1,1,0,0,1-.9.37Z"/><path class="cls-72" d="M476.56,88.61c.11,0,.23,0,.34,0a.26.26,0,0,1,0,.28c0,1-.06,2-.1,2.93a1.77,1.77,0,0,1-.3-1.14C476.55,90,476.55,89.3,476.56,88.61Z"/><path class="cls-72" d="M476.53,100c0,1,0,2.11,0,3.16-.09.16-.18.17-.27,0,0-.8,0-1.6,0-2.39A1.12,1.12,0,0,1,476.53,100Z"/><path class="cls-71" d="M371.14,106.68a1,1,0,0,1,.34.92c0,.63,0,1.25,0,1.87a1.06,1.06,0,0,1-.33-.92C371.15,107.93,371.15,107.31,371.14,106.68Z"/><path class="cls-66" d="M476.24,106.08c0-.63-.05-1.27-.08-1.9l.06-.62a.18.18,0,0,1,.28,0l.1.09A5.83,5.83,0,0,1,476.24,106.08Z"/><path class="cls-71" d="M371.5,109.81a.89.89,0,0,1,.33.74c0,.57,0,1.13,0,1.7a.93.93,0,0,1-.33-.75Z"/><path class="cls-71" d="M371.46,95.19c0,.57,0,1.14,0,1.71a.9.9,0,0,1-.33.75c0-.51,0-1,0-1.53A1.15,1.15,0,0,1,371.46,95.19Z"/><path class="cls-71" d="M373.56,85.83c0,.34,0,.69,0,1s-.21.48-.31.71h-.39A2.11,2.11,0,0,1,373.56,85.83Z"/><path class="cls-73" d="M475.79,80c0,.68,0,1.37,0,2.05-.44-.65-.25-1.4-.34-2.11A.8.8,0,0,1,475.79,80Z"/><path class="cls-71" d="M371.15,105.29c.58.47.18.93,0,1.39a.47.47,0,0,1-.22-.57C371,105.84,371.07,105.56,371.15,105.29Z"/><path class="cls-71" d="M372.53,88.61c-.06.59.19,1.25-.34,1.74C372.24,89.76,372,89.11,372.53,88.61Z"/><path class="cls-70" d="M428.24,183.88a1.22,1.22,0,0,1-1.08.66A.91.91,0,0,1,428.24,183.88Z"/><path class="cls-71" d="M371.8,92.76c0,.49.17,1-.29,1.42C371.51,93.69,371.36,93.16,371.8,92.76Z"/><path class="cls-72" d="M476.84,92v1.55A1.21,1.21,0,0,1,476.84,92Z"/><path class="cls-71" d="M372.16,90.68c0,.49.15,1-.31,1.41C371.86,91.6,371.71,91.07,372.16,90.68Z"/><path class="cls-72" d="M476.85,94.1v1.19A.82.82,0,0,1,476.85,94.1Z"/><path class="cls-71" d="M372.88,87.57c0,.38.05.79-.35,1C372.53,88.23,372.48,87.82,372.88,87.57Z"/><path class="cls-71" d="M374,84.46a1.23,1.23,0,0,1-.35,1.06C373.57,85.11,373.5,84.7,374,84.46Z"/><path class="cls-34" d="M471.33,126.49a1.31,1.31,0,0,1-.31,1.07l-.09-.08a.7.7,0,0,1,0-.71.67.67,0,0,1,0-.28C471.1,126.34,471.22,126.34,471.33,126.49Z"/><path class="cls-74" d="M469.66,131.07a1,1,0,0,1-.36,1C469.23,131.68,469.18,131.28,469.66,131.07Z"/><path class="cls-66" d="M476.18,82.72a1,1,0,0,1,.08.29.66.66,0,0,1,0,.69l-.14.12a1.47,1.47,0,0,1-.29-1.09C475.94,82.56,476.05,82.56,476.18,82.72Z"/><path class="cls-71" d="M371.14,97.65c0,.35,0,.7,0,1C370.71,98.17,370.71,98.16,371.14,97.65Z"/><path class="cls-75" d="M471.66,124.37l0,1.08h0c-.13.15-.24.16-.36,0A1.29,1.29,0,0,1,471.66,124.37Z"/><path class="cls-50" d="M370.09,139h.36c0,.11,0,.21,0,.32a.65.65,0,0,1,0,.66l-.13.11A1.38,1.38,0,0,1,370.09,139Z"/><path class="cls-71" d="M371.85,112.59c.38.27.33.67.31,1.06C371.79,113.37,371.83,113,371.85,112.59Z"/><path class="cls-75" d="M471,126.77c0,.24,0,.48,0,.71a.88.88,0,0,1-.27.06A.93.93,0,0,1,471,126.77Z"/><path class="cls-61" d="M378.83,72.66a.72.72,0,0,1-.37.67A.58.58,0,0,1,378.83,72.66Z"/><path class="cls-61" d="M378.46,73.33a.69.69,0,0,1-.35.69A.62.62,0,0,1,378.46,73.33Z"/><path class="cls-26" d="M370.52,140l0-.66a.83.83,0,0,1,.28.74A.73.73,0,0,1,370.52,140Z"/><path class="cls-70" d="M428.8,183.77l-.57.11a.55.55,0,0,1,.65-.4A.44.44,0,0,1,428.8,183.77Z"/><path class="cls-76" d="M473.43,73.67a.44.44,0,0,1,.27.09c0,.21,0,.41.05.62A.68.68,0,0,1,473.43,73.67Z"/><path class="cls-61" d="M378.11,74a.74.74,0,0,1-.34.71A.64.64,0,0,1,378.11,74Z"/><path class="cls-38" d="M468.48,64l.09.61a.53.53,0,0,1-.38-.65A.37.37,0,0,1,468.48,64Z"/><path class="cls-34" d="M471.33,125.45h.36a1,1,0,0,1-.29.8.35.35,0,0,1-.12-.53A.59.59,0,0,1,471.33,125.45Z"/><path class="cls-73" d="M476.18,82.72h-.35c0-.23,0-.46,0-.69l.35,0C476.17,82.25,476.17,82.49,476.18,82.72Z"/><path class="cls-63" d="M462,33.36l.4,0a.86.86,0,0,1-.41.66l-.14-.15a.77.77,0,0,1,0-.4Z"/><path class="cls-75" d="M471.28,125.72l.12.53a.24.24,0,0,1-.07.24H471A1,1,0,0,1,471.28,125.72Z"/><path class="cls-74" d="M469.94,130.31a.65.65,0,0,1-.27.74A.55.55,0,0,1,469.94,130.31Z"/><path class="cls-33" d="M382.28,192.86c-.31,0-.58,0-.72-.32A.55.55,0,0,1,382.28,192.86Z"/><path class="cls-63" d="M461.94,34.06l-.33.36-.07-.21a.32.32,0,0,1,.38-.17Z"/><path class="cls-63" d="M461.61,34.42l-.33.36,0,0c-.07-.3.05-.41.34-.35Z"/><path class="cls-74" d="M470.59,128.09a.53.53,0,0,1-.25.47Z"/><path class="cls-62" d="M476.5,103.51a.87.87,0,0,1-.28,0v-.35h.27A.65.65,0,0,1,476.5,103.51Z"/><path class="cls-56" d="M442.86,161.28l-.34.36-.09-.08a.34.34,0,0,1,.21-.39Z"/><path class="cls-56" d="M443.2,160.94l-.35.34-.08-.08a.35.35,0,0,1,.22-.38Z"/><path class="cls-44" d="M464.71,73.68c-.1-.14-.2-.27-.31-.4C464.51,73.41,464.61,73.54,464.71,73.68Z"/><path class="cls-56" d="M443.54,160.58l-.34.36-.09-.09c-.05-.26.07-.37.32-.36Z"/><path class="cls-76" d="M473.15,73a.4.4,0,0,1,.2.43A.43.43,0,0,1,473.15,73Z"/><path class="cls-44" d="M464.35,73,464,72.6Z"/><path class="cls-17" d="M385.78,51.81a.33.33,0,0,1,.38-.3A.4.4,0,0,1,385.78,51.81Z"/><path class="cls-56" d="M452.91,147.7l.31-.36Z"/><path class="cls-68" d="M424.05,123.33a.36.36,0,0,1,.34.37A.39.39,0,0,1,424.05,123.33Z"/><path class="cls-33" d="M376,188a.48.48,0,0,1-.35-.35Z"/><path class="cls-33" d="M376.39,188.32A.45.45,0,0,1,376,188Z"/><path class="cls-52" d="M393.76,56l-.38.31Z"/><path class="cls-17" d="M384.33,53.13a.39.39,0,0,1,.38-.31A.37.37,0,0,1,384.33,53.13Z"/><path class="cls-17" d="M384.71,52.82a.35.35,0,0,1,.36-.33A.37.37,0,0,1,384.71,52.82Z"/><path class="cls-17" d="M385.07,52.48a.35.35,0,0,1,.34-.35A.35.35,0,0,1,385.07,52.48Z"/><path class="cls-74" d="M470.25,129.15a.52.52,0,0,1-.26.45Z"/><path class="cls-12" d="M456.68,51.79a.5.5,0,0,1,.4.33Z"/><path class="cls-17" d="M385.41,52.13a.33.33,0,0,1,.37-.32A.38.38,0,0,1,385.41,52.13Z"/><path class="cls-22" d="M476.26,83.7V83a.75.75,0,0,1,.25.77A.73.73,0,0,1,476.26,83.7Z"/><path class="cls-7" d="M369.35,160.53a1.19,1.19,0,0,1-.28,1.08l0-1A.7.7,0,0,1,369.35,160.53Z"/><path d="M432.36,117.77l6.33-4.85c.13-.11.29-.2.41-.32a1,1,0,0,0,.09-1.26c-.32-.41-.72-.76-1-1.17s-.76-.71-1.33-.37a1,1,0,0,1-.32.13c-.86.21-1.73-.44-1.38-1.18.6-1.26-.12-2-.8-2.72s-1.2-1.26-1.79-1.9c-1.6-1.74-3.19-3.49-4.79-5.24-.43-.47-.88-.92-1.31-1.39s-.48-.91-.23-1.25a1.08,1.08,0,0,1,1.26-.26,4.46,4.46,0,0,1,.63.28l11.15,5.29c.47.22.94.43,1.41.67a1.64,1.64,0,0,0,1.93-.27c.58-.47,1.16-.95,1.78-1.36a1,1,0,0,1,1.15.08,1.17,1.17,0,0,1,.4,1.09,1.34,1.34,0,0,1-.45.72c-1.13,1.27-1.13,1.27.29,2,2.43,1.33,2,1.24,4.1-.3a81.1,81.1,0,0,1,7.23-5.1,25.21,25.21,0,0,1,4.23-2,4.1,4.1,0,0,1,1.7-.27c1.17.08,1.65.75,1.3,1.89a5.28,5.28,0,0,1-1,1.8,42.28,42.28,0,0,1-6.17,6.09l-4.43,3.63a1.08,1.08,0,0,0-.47.88c0,.92,0,1.85.15,2.77.09.7.69.87,1.29.41a8.51,8.51,0,0,1,.66-.56,1.14,1.14,0,0,1,1.42.22,1,1,0,0,1,0,1.41,15.76,15.76,0,0,1-1.24,1.21,7.22,7.22,0,0,1-.82.64,1.59,1.59,0,0,0-.7,1.65c.16,1.26.24,2.53.37,3.8q.56,5.7,1.13,11.39a1.65,1.65,0,0,1-.25,1.31c-.44.54-.9.57-1.23,0-.43-.82-.82-1.66-1.25-2.49-1.5-2.93-3-5.85-4.51-8.79a.93.93,0,0,0-1.24-.59,1.4,1.4,0,0,1-.34.08,1,1,0,0,1-1.14-.58.86.86,0,0,1,.14-1.12c.94-.72.8-1.47.3-2.4a10.62,10.62,0,0,0-1-1.8c-.37-.44-.52-.45-1.17,0l-.28.19a9.59,9.59,0,0,0-1,.72l-3.63,2.69c-.56.41-1.12.82-1.67,1.25a1.32,1.32,0,0,0-.54.85c-.12.74-.27,1.48-.36,2.22-.17,1.5-.3,3-.47,4.49a2.73,2.73,0,0,1-.8,1.86.37.37,0,0,1-.59-.07,6.26,6.26,0,0,1-.4-1c-.74-2-1.51-4-2.22-6a4.22,4.22,0,0,0-1.17-1.68c-1.82-1.78-3.73-3.47-5.7-5.08a1.38,1.38,0,0,1-.22-.26,2.19,2.19,0,0,0-.34-.34h0c.48-1,1.37-.55,2-.43,1.84.36,3.73.44,5.56.91A1.56,1.56,0,0,0,432.36,117.77Z"/><path class="cls-77" d="M401.41,186.6l-.66,0-1.12,0a2.48,2.48,0,0,1,1.59-.6c1.77-.07,3.31-.9,4.94-1.41a29,29,0,0,1,4.32-1.06c-.26.39-.72.43-1.07.67l-6.93,2.1C402.18,186.58,401.7,186.27,401.41,186.6Z"/><path class="cls-78" d="M432.36,117.77c-.35.57-.91.45-1.39.37-2-.29-3.92-.64-5.89-.94-.6-.09-1.25-.28-1.77.26-.19-.44-.12-.71.18-.73a13.91,13.91,0,0,1,3.09.24c1.52.29,3,.56,4.57.8A7,7,0,0,0,432.36,117.77Z"/><path class="cls-53" d="M425.41,175.84a1.23,1.23,0,0,1-.67.69,3.51,3.51,0,0,0-1.12,1c-.73.11-1.26.76-2,.75A10.41,10.41,0,0,1,425.41,175.84Z"/><path class="cls-77" d="M415.49,181.24a3.93,3.93,0,0,1-2.59,1.22A4.12,4.12,0,0,1,415.49,181.24Z"/><path class="cls-53" d="M443.43,160.49l-.32.36-.34.35-.34.36-.68.37a3.52,3.52,0,0,1,1.77-2.07Z"/><path class="cls-77" d="M412.9,182.46a3.79,3.79,0,0,1-2.42,1A3.17,3.17,0,0,1,412.9,182.46Z"/><path class="cls-79" d="M441.43,118.52a1,1,0,0,1,1-.72A1.18,1.18,0,0,1,441.43,118.52Z"/><path class="cls-53" d="M440.73,163a.41.41,0,0,1-.33.35A.38.38,0,0,1,440.73,163Z"/><path class="cls-53" d="M441.08,162.64a.45.45,0,0,1-.35.35A.42.42,0,0,1,441.08,162.64Z"/><path class="cls-53" d="M441.43,162.3a.44.44,0,0,1-.35.34A.39.39,0,0,1,441.43,162.3Z"/><path class="cls-53" d="M441.76,161.93a.41.41,0,0,1-.33.36A.41.41,0,0,1,441.76,161.93Z"/><path class="cls-78" d="M423.32,117.47a.37.37,0,0,1,.34.34A.33.33,0,0,1,423.32,117.47Z"/><path class="cls-80" d="M460.86,34.73a5.14,5.14,0,0,0-.68.53,30.78,30.78,0,0,1-4.21,3.6,3.28,3.28,0,0,0-.34.39,17.91,17.91,0,0,0-3,1.38,12.69,12.69,0,0,1-5,1.45c-.8,0-1.58.27-2.4.31a27.83,27.83,0,0,1-6.69-.8,19.39,19.39,0,0,1-2.61-.94,29.91,29.91,0,0,1-5.61-2.71,1.47,1.47,0,0,1-.79-1.59c.1-.68.25-1.36.35-2a25.58,25.58,0,0,1,2.54-8.42A21.74,21.74,0,0,1,435.76,21a16.24,16.24,0,0,1,4.44-3.55l3-1.47c.55-.29,1.18-.4,1.75-.68h0c1-.18,2-.33,3.05-.54a31,31,0,0,1,9.27-.34,61.09,61.09,0,0,1,6.32.85c2.08.43,4.15.93,6.22,1.42.75.18,1,.61.71,1.28s-.51,1.28-.79,1.92a70.41,70.41,0,0,1-5.47,10.2c-.73,1.11-1.52,2.17-2.28,3.25h0C461.59,33.83,461.25,34.3,460.86,34.73Z"/><path class="cls-46" d="M460.86,34.73a1.84,1.84,0,0,1,1.08-1.36c0,.22,0,.44,0,.67l-.34.35-.34.35Z"/><path class="cls-49" d="M401.41,186.6c.27-.4.68-.33,1.07-.32a1.43,1.43,0,0,1-.09.27Z"/></g></g></svg>