<svg width="41" height="30" viewBox="0 0 41 30" fill="none" xmlns="http://www.w3.org/2000/svg">
<rect width="41" height="30" rx="3.77143" fill="white"/>
<path fill-rule="evenodd" clip-rule="evenodd" d="M20.7933 21.4469C19.3975 22.732 17.5871 23.5077 15.6088 23.5077C11.1941 23.5077 7.61523 19.6445 7.61523 14.879C7.61523 10.1135 11.1941 6.25024 15.6088 6.25024C17.5871 6.25024 19.3975 7.02599 20.7933 8.31105C22.1891 7.02599 23.9995 6.25024 25.9778 6.25024C30.3925 6.25024 33.9713 10.1135 33.9713 14.879C33.9713 19.6445 30.3925 23.5077 25.9778 23.5077C23.9995 23.5077 22.1891 22.732 20.7933 21.4469Z" fill="#ED0006"/>
<path fill-rule="evenodd" clip-rule="evenodd" d="M20.791 21.4469C22.51 19.8642 23.6001 17.509 23.6001 14.879C23.6001 12.2489 22.51 9.89372 20.791 8.31105C22.1868 7.02599 23.9972 6.25024 25.9755 6.25024C30.3902 6.25024 33.9691 10.1135 33.9691 14.879C33.9691 19.6445 30.3902 23.5077 25.9755 23.5077C23.9972 23.5077 22.1868 22.732 20.791 21.4469Z" fill="#F9A000"/>
<path fill-rule="evenodd" clip-rule="evenodd" d="M20.7915 21.4466C22.5105 19.864 23.6006 17.5088 23.6006 14.8787C23.6006 12.2487 22.5105 9.89346 20.7915 8.31079C19.0725 9.89346 17.9824 12.2487 17.9824 14.8787C17.9824 17.5088 19.0725 19.864 20.7915 21.4466Z" fill="#FF5E00"/>
</svg>
